<?xml version="1.0" encoding="UTF-8" standalone="no"?>
<svg
   xmlns:dc="http://purl.org/dc/elements/1.1/"
   xmlns:cc="http://creativecommons.org/ns#"
   xmlns:rdf="http://www.w3.org/1999/02/22-rdf-syntax-ns#"
   xmlns:svg="http://www.w3.org/2000/svg"
   xmlns="http://www.w3.org/2000/svg"
   xmlns:sodipodi="http://sodipodi.sourceforge.net/DTD/sodipodi-0.dtd"
   xmlns:inkscape="http://www.inkscape.org/namespaces/inkscape"
   fill="#F44336"
   viewBox="0 0 48 48"
   id="svg2"
   version="1.1"
   inkscape:version="0.91 r13725"
   sodipodi:docname="multi_remove.svg">
  <metadata
     id="metadata10">
    <rdf:RDF>
      <cc:Work
         rdf:about="">
        <dc:format>image/svg+xml</dc:format>
        <dc:type
           rdf:resource="http://purl.org/dc/dcmitype/StillImage" />
        <dc:title></dc:title>
      </cc:Work>
    </rdf:RDF>
  </metadata>
  <defs
     id="defs8" />
  <sodipodi:namedview
     pagecolor="#ffffff"
     bordercolor="#666666"
     borderopacity="1"
     objecttolerance="10"
     gridtolerance="10"
     guidetolerance="10"
     inkscape:pageopacity="0"
     inkscape:pageshadow="2"
     inkscape:window-width="1366"
     inkscape:window-height="745"
     id="namedview6"
     showgrid="false"
     inkscape:zoom="4.9166667"
     inkscape:cx="20.440678"
     inkscape:cy="24"
     inkscape:window-x="0"
     inkscape:window-y="23"
     inkscape:window-maximized="1"
     inkscape:current-layer="svg2" />
  <path
     d="m 32.915254,13.03339 -2.83,-2.83 -11.17,11.17 -11.1699998,-11.17 -2.83,2.83 11.1699998,11.17 -11.1699998,11.17 2.83,2.83 11.1699998,-11.17 11.17,11.17 2.83,-2.83 -11.17,-11.17 z"
     id="path4"
     inkscape:connector-curvature="0" />
  <path
     style="color:#000000;display:inline;overflow:visible;visibility:visible;opacity:0.79999994;fill:#000000;fill-opacity:1;fill-rule:nonzero;stroke:#a9d67f;stroke-width:0.20338982;stroke-linecap:butt;stroke-linejoin:miter;stroke-miterlimit:4;stroke-dasharray:none;stroke-dashoffset:0;stroke-opacity:0.98361786;marker:none;enable-background:accumulate"
     d="m 6.2527212,37.086877 -1.6736205,-1.68236 5.4901103,-5.487286 c 3.019561,-3.018008 5.490111,-5.580084 5.490111,-5.693502 0,-0.113418 -2.47055,-2.675494 -5.490111,-5.693502 l -5.4901103,-5.487286 1.6736205,-1.68236 1.673621,-1.6823605 5.4958188,5.4930935 c 3.0227,3.021201 5.586117,5.493093 5.696483,5.493093 0.110366,0 2.673784,-2.471892 5.696484,-5.493093 l 5.495819,-5.4930935 1.673619,1.6823605 1.673622,1.68236 -5.49011,5.487286 c -3.019562,3.018008 -5.490112,5.580084 -5.490112,5.693502 0,0.113418 2.47055,2.675494 5.490112,5.693502 l 5.49011,5.487286 -1.673622,1.68236 -1.673619,1.682361 -5.495819,-5.493093 c -3.0227,-3.021202 -5.586118,-5.493094 -5.696484,-5.493094 -0.110366,0 -2.673783,2.471892 -5.696483,5.493094 L 7.9263422,38.769238 6.2527212,37.086877 Z M 19.118644,26.562712 c 0.110366,0 2.674343,2.472451 5.697726,5.494334 l 5.497062,5.494337 1.110287,-1.124254 1.110286,-1.124252 -5.587649,-5.590421 -5.58765,-5.590422 5.591834,-5.60043 5.591833,-5.60043 -1.052674,-1.00974 c -0.578972,-0.555356 -1.128761,-1.009739 -1.221753,-1.009739 -0.09299,0 -2.639003,2.471198 -5.657801,5.49155 l -5.488726,5.491551 -5.540962,-5.538214 -5.5409608,-5.538214 -1.124252,1.110287 -1.124253,1.110287 5.5437958,5.546546 5.543796,5.546546 -5.58765,5.590422 -5.5876488,5.590421 1.110286,1.124252 1.110287,1.124254 5.4970608,-5.494337 c 3.023384,-3.021883 5.58736,-5.494334 5.697726,-5.494334 z"
     id="path4157"
     inkscape:connector-curvature="0" />
  <path
     inkscape:connector-curvature="0"
     d="m 38.813559,14.84356 -2.83,-2.83 -11.17,11.169999 -11.17,-11.169999 -2.83,2.83 11.17,11.169999 -11.17,11.17 2.83,2.83 11.17,-11.17 11.17,11.17 2.83,-2.83 -11.17,-11.17 z"
     id="path4-5" />
  <path
     style="color:#000000;display:inline;overflow:visible;visibility:visible;opacity:0.79999994;fill:#000000;fill-opacity:1;fill-rule:nonzero;stroke:#a9d67f;stroke-width:0.20338982;stroke-linecap:butt;stroke-linejoin:miter;stroke-miterlimit:4;stroke-dasharray:none;stroke-dashoffset:0;stroke-opacity:0.98361786;marker:none;enable-background:accumulate"
     d="m 12.151026,38.897046 -1.673621,-1.68236 5.490111,-5.487286 c 3.019561,-3.018008 5.490111,-5.580084 5.490111,-5.693502 0,-0.113418 -2.47055,-2.675494 -5.490111,-5.693501 l -5.490111,-5.487286 1.673621,-1.68236 1.673621,-1.682361 5.495819,5.493094 c 3.0227,3.021201 5.586117,5.493092 5.696483,5.493092 0.110366,0 2.673784,-2.471891 5.696484,-5.493092 l 5.495819,-5.493094 1.673619,1.682361 1.673622,1.68236 -5.49011,5.487286 c -3.019562,3.018007 -5.490112,5.580083 -5.490112,5.693501 0,0.113418 2.47055,2.675494 5.490112,5.693502 l 5.49011,5.487286 -1.673622,1.68236 -1.673619,1.682361 -5.495819,-5.493093 c -3.0227,-3.021202 -5.586118,-5.493094 -5.696484,-5.493094 -0.110366,0 -2.673783,2.471892 -5.696483,5.493094 l -5.495819,5.493093 -1.673621,-1.682361 z M 25.016949,28.372881 c 0.110366,0 2.674343,2.472451 5.697726,5.494334 l 5.497062,5.494337 1.110287,-1.124254 1.110286,-1.124252 -5.587649,-5.590421 -5.58765,-5.590422 5.591834,-5.600429 5.591833,-5.60043 -1.052674,-1.00974 c -0.578972,-0.555356 -1.128761,-1.009739 -1.221753,-1.009739 -0.09299,0 -2.639003,2.471198 -5.657801,5.49155 l -5.488726,5.49155 -5.540962,-5.538213 -5.540961,-5.538214 -1.124252,1.110287 -1.124253,1.110287 5.543796,5.546546 5.543796,5.546545 -5.58765,5.590422 -5.587649,5.590421 1.110286,1.124252 1.110287,1.124254 5.497061,-5.494337 c 3.023384,-3.021883 5.58736,-5.494334 5.697726,-5.494334 z"
     id="path4157-3"
     inkscape:connector-curvature="0" />
  <path
     inkscape:connector-curvature="0"
     d="m 44.508475,16.063899 -2.83,-2.83 -11.17,11.169999 -11.170001,-11.169999 -2.83,2.83 11.170001,11.169999 -11.170001,11.17 2.83,2.83 11.170001,-11.17 11.17,11.17 2.83,-2.83 -11.17,-11.17 z"
     id="path4-5-9" />
  <path
     style="color:#000000;display:inline;overflow:visible;visibility:visible;opacity:0.79999994;fill:#000000;fill-opacity:1;fill-rule:nonzero;stroke:#a9d67f;stroke-width:0.20338982;stroke-linecap:butt;stroke-linejoin:miter;stroke-miterlimit:4;stroke-dasharray:none;stroke-dashoffset:0;stroke-opacity:0.98361786;marker:none;enable-background:accumulate"
     d="m 17.845941,40.117385 -1.673621,-1.68236 5.490111,-5.487286 c 3.019561,-3.018008 5.490112,-5.580084 5.490112,-5.693502 0,-0.113418 -2.470551,-2.675494 -5.490112,-5.693501 l -5.490111,-5.487286 1.673621,-1.68236 1.673621,-1.682361 5.495819,5.493094 c 3.022701,3.021201 5.586118,5.493092 5.696484,5.493092 0.110366,0 2.673784,-2.471891 5.696484,-5.493092 l 5.495819,-5.493094 1.673619,1.682361 1.673622,1.68236 -5.49011,5.487286 c -3.019562,3.018007 -5.490112,5.580083 -5.490112,5.693501 0,0.113418 2.47055,2.675494 5.490112,5.693502 l 5.49011,5.487286 -1.673622,1.68236 -1.673619,1.682361 -5.495819,-5.493093 c -3.0227,-3.021202 -5.586118,-5.493094 -5.696484,-5.493094 -0.110366,0 -2.673783,2.471892 -5.696484,5.493094 l -5.495819,5.493093 -1.673621,-1.682361 z M 30.711865,29.59322 c 0.110366,0 2.674343,2.472451 5.697726,5.494334 l 5.497062,5.494337 1.110287,-1.124254 1.110286,-1.124252 -5.587649,-5.590421 -5.58765,-5.590422 5.591834,-5.600429 5.591833,-5.60043 -1.052674,-1.00974 c -0.578972,-0.555356 -1.128761,-1.009739 -1.221753,-1.009739 -0.09299,0 -2.639003,2.471198 -5.657801,5.49155 l -5.488726,5.49155 -5.540963,-5.538213 -5.540961,-5.538214 -1.124252,1.110287 -1.124253,1.110287 5.543796,5.546546 5.543797,5.546545 -5.587651,5.590422 -5.587649,5.590421 1.110286,1.124252 1.110287,1.124254 5.497061,-5.494337 c 3.023385,-3.021883 5.587361,-5.494334 5.697727,-5.494334 z"
     id="path4157-3-1"
     inkscape:connector-curvature="0" />
</svg>
