<?xml version="1.0" encoding="UTF-8" standalone="no"?>
<svg
   xmlns:dc="http://purl.org/dc/elements/1.1/"
   xmlns:cc="http://creativecommons.org/ns#"
   xmlns:rdf="http://www.w3.org/1999/02/22-rdf-syntax-ns#"
   xmlns:svg="http://www.w3.org/2000/svg"
   xmlns="http://www.w3.org/2000/svg"
   xmlns:sodipodi="http://sodipodi.sourceforge.net/DTD/sodipodi-0.dtd"
   xmlns:inkscape="http://www.inkscape.org/namespaces/inkscape"
   fill="#F44336"
   viewBox="0 0 48 48"
   id="svg2"
   version="1.1"
   inkscape:version="0.91 r13725"
   sodipodi:docname="pause_all.svg">
  <metadata
     id="metadata10">
    <rdf:RDF>
      <cc:Work
         rdf:about="">
        <dc:format>image/svg+xml</dc:format>
        <dc:type
           rdf:resource="http://purl.org/dc/dcmitype/StillImage" />
      </cc:Work>
    </rdf:RDF>
  </metadata>
  <defs
     id="defs8" />
  <sodipodi:namedview
     pagecolor="#ffffff"
     bordercolor="#666666"
     borderopacity="1"
     objecttolerance="10"
     gridtolerance="10"
     guidetolerance="10"
     inkscape:pageopacity="0"
     inkscape:pageshadow="2"
     inkscape:window-width="1366"
     inkscape:window-height="745"
     id="namedview6"
     showgrid="false"
     inkscape:zoom="6.9532167"
     inkscape:cx="32.235825"
     inkscape:cy="19.349028"
     inkscape:window-x="0"
     inkscape:window-y="23"
     inkscape:window-maximized="1"
     inkscape:current-layer="svg2" />
  <path
     d="m 7.3978135,33.68545 7.9999995,0 0,-27.9999999 -7.9999995,0 0,27.9999999 M 23.397813,5.6854501 l 0,27.9999999 8,0 0,-27.9999999 -8,0"
     id="path4"
     inkscape:connector-curvature="0" />
  <path
     style="fill:none;fill-rule:evenodd;stroke:#000000;stroke-width:1px;stroke-linecap:butt;stroke-linejoin:miter;stroke-opacity:1"
     d="M 23.363915,5.5498569 31.397813,5.6515518 31.296118,33.719348 23.26222,33.617653 Z"
     id="path4153"
     inkscape:connector-curvature="0" />
  <path
     style="fill:none;fill-rule:evenodd;stroke:#000000;stroke-width:1px;stroke-linecap:butt;stroke-linejoin:miter;stroke-opacity:1"
     d="m 7.4066435,5.6455022 7.9819175,0 -0.07191,28.0445738 -7.9819165,0 z"
     id="path4155"
     inkscape:connector-curvature="0" />
  <path
     inkscape:connector-curvature="0"
     d="m 11.617491,39.183733 8,0 0,-28 -8,0 0,28 m 16,-28 0,28 8,0 0,-28 -8,0"
     id="path4-6" />
  <path
     style="fill:none;fill-rule:evenodd;stroke:#000000;stroke-width:1px;stroke-linecap:butt;stroke-linejoin:miter;stroke-opacity:1"
     d="m 27.583593,11.04814 8.033898,0.101695 -0.101695,28.067796 -8.033898,-0.101695 z"
     id="path4153-7"
     inkscape:connector-curvature="0" />
  <path
     style="fill:none;fill-rule:evenodd;stroke:#000000;stroke-width:1px;stroke-linecap:butt;stroke-linejoin:miter;stroke-opacity:1"
     d="m 11.626321,11.143785 7.981918,0 -0.07191,28.044574 -7.981917,0 z"
     id="path4155-5"
     inkscape:connector-curvature="0" />
  <path
     inkscape:connector-curvature="0"
     d="m 15.788222,44.217374 8,0 0,-27.999999 -8,0 0,27.999999 m 16.000001,-27.999999 0,27.999999 8,0 0,-27.999999 -8,0"
     id="path4-3" />
  <path
     style="fill:none;fill-rule:evenodd;stroke:#000000;stroke-width:1px;stroke-linecap:butt;stroke-linejoin:miter;stroke-opacity:1"
     d="m 31.754325,16.081781 8.033898,0.101695 -0.101695,28.067796 -8.033898,-0.101695 z"
     id="path4153-5"
     inkscape:connector-curvature="0" />
  <path
     style="fill:none;fill-rule:evenodd;stroke:#000000;stroke-width:1px;stroke-linecap:butt;stroke-linejoin:miter;stroke-opacity:1"
     d="m 15.797052,16.177427 7.981918,0 -0.07191,28.044573 -7.981917,0 z"
     id="path4155-6"
     inkscape:connector-curvature="0" />
</svg>
