<svg width="150" height="150" >
  <g transform="matrix(0.69285714,0,0,0.69285678,24.357368,19.834994)">
    <path d="M 79.796875,10 A 70,70 0 0 0 10,80 70,70 0 0 0 80,150 70,70 0 0 0 150,80 70,70 0 0 0 80,10 70,70 0 0 0 79.796875,10 Z m 31.136715,28.5 c 3.18632,-0.0087 6.37636,1.211206 8.81446,3.660156 4.8727,4.8965 4.89297,12.857744 0.0469,17.777344 L 98.519531,81.515625 119.81836,103.11523 c 4.8062,4.8846 4.74022,12.79498 -0.14648,17.67188 -4.8881,4.8748 -12.74599,4.86241 -17.55079,-0.0215 L 80.96875,99.316406 59.777344,120.80664 c -4.8489,4.9238 -12.733175,4.94478 -17.609375,0.0469 -4.8727,-4.8965 -4.893675,-12.85775 -0.04687,-17.77735 L 63.396484,81.496094 42.099609,59.898438 c -4.8069,-4.8846 -4.742168,-12.796929 0.144532,-17.673829 4.8881,-4.8741 12.747934,-4.862415 17.552734,0.02148 L 80.949219,63.697266 102.14062,42.207031 c 2.42446,-2.4619 5.60666,-3.698369 8.79297,-3.707031 z" fill="#a2a2a2" fill-opacity="1.0" />
  </g>
</svg>
