<svg width="24" height="24">
  <path fill="#eff0f1" d="M19,20H4C2.89,20 2,19.1 2,18V6C2,4.89 2.89,4 4,4H10L12,6H19A2,2 0 0,1 21,8H21L4,8V18L6.14,10H23.21L20.93,18.5C20.7,19.37 19.92,20 19,20Z"/>
  <g transform="scale(0.5) translate(14, 20)">
    <path fill="#31363b" d="M3.9,12C3.9,10.29 5.29,8.9 7,8.9H11V7H7A5,5 0 0,0 2,12A5,5 0 0,0 7,17H11V15.1H7C5.29,15.1 3.9,13.71 3.9,12M8,13H16V11H8V13M17,7H13V8.9H17C18.71,8.9 20.1,10.29 20.1,12C20.1,13.71 18.71,15.1 17,15.1H13V17H17A5,5 0 0,0 22,12A5,5 0 0,0 17,7Z"/>
  </g>
</svg>
