<svg width="125" height="100">
  <g transform="matrix(0.81,0,0,0.9,-21.679699,-101.53893)">
    <path fill="#99995C" d="M 52.011974,115.59881 H 156.06585 c 11.08,0 20,8.92 20,20 v 44.92065 c 0,11.08 -8.92,20 -20,20 h -13.00673 -13.00674 l -0.40043,21.04927 -25.61304,-21.04927 H 91.032178 78.025443 65.018709 52.011974 c -11.08,0 -20,-8.92 -20,-20 v -44.92065 c 0,-11.08 8.92,-20 20,-20 z"/>
  </g>
  <g transform="matrix(-1.3,0,0,-1.3,-31.292987,5.2431529)">
    <path stroke="#eff0f1" stroke-width="4" fill="none" d="m -50.000002,-45.56575 -11.604722,20.155647 -11.604722,20.1556473 -11.652942,-20.1278073 -11.652941,-20.127808 23.257664,-0.02784 z" />
  </g>
  <rect width="5" height="5" fill="#eff0f1" x="61.456787" y="51.961071"/>
  <rect width="5" height="15" fill="#eff0f1" x="61.456787" y="30.961071"/>
</svg>
