<svg width="125" height="100">
  <g transform="matrix(0.81,0,0,0.9,-21.679699,-101.53893)">
    <path fill="#634d80" d="M 52.011974,115.59881 H 156.06585 c 11.08,0 20,8.92 20,20 v 44.92065 c 0,11.08 -8.92,20 -20,20 h -13.00673 -13.00674 l -0.40043,21.04927 -25.61304,-21.04927 H 91.032178 78.025443 65.018709 52.011974 c -11.08,0 -20,-8.92 -20,-20 v -44.92065 c 0,-11.08 8.92,-20 20,-20 z"/>
  </g>
  <g transform="matrix(0.8,0,0,0.8,47.960023,9.6399758)">
    <path fill="#eff0f1" d="M 6.5,15.7 0,10.5 A 34.396,34.396 0 0 1 5.209,5.308 29.133,29.133 0 0 1 8.9,2.8 20.688,20.688 0 0 1 15.376,0.471 28.67,28.67 0 0 1 20.7,0 23.588,23.588 0 0 1 25.188,0.412 19.412,19.412 0 0 1 28.35,1.3 20.221,20.221 0 0 1 32.38,3.335 17.495,17.495 0 0 1 34.3,4.8 q 2.5,2.2 3.9,5.15 1.4,2.95 1.4,6.35 a 21.269,21.269 0 0 1 -0.239,3.28 q -0.35,2.239 -1.211,4.02 -1.45,3 -3.65,5.35 -2.2,2.35 -4.75,4.35 -2.55,2 -4.75,4.2 -2.2,2.2 -3.65,4.9 -1.45,2.7 -1.45,6.5 v 5.6 h -7.8 q -0.5,-1.7 -0.75,-3.7 -0.25,-2 -0.25,-3.7 a 21.322,21.322 0 0 1 0.268,-3.464 Q 11.713,41.544 12.5,39.8 13.9,36.7 16,34.35 18.1,32 20.5,30.1 22.9,28.2 25,26.25 A 22.215,22.215 0 0 0 27.557,23.451 19.388,19.388 0 0 0 28.5,22.1 8.977,8.977 0 0 0 29.849,18.085 11.244,11.244 0 0 0 29.9,17 8.241,8.241 0 0 0 27.605,11.27 11.006,11.006 0 0 0 27.2,10.85 9.012,9.012 0 0 0 22.652,8.472 13.221,13.221 0 0 0 19.9,8.2 15.005,15.005 0 0 0 15.476,8.833 13.061,13.061 0 0 0 12.45,10.2 20.728,20.728 0 0 0 8.466,13.425 26.209,26.209 0 0 0 6.5,15.7 Z m 3.526,51.94 A 8.86,8.86 0 0 0 9.8,69.7 q 0,2.7 2,4.7 A 8.317,8.317 0 0 0 11.863,74.462 6.418,6.418 0 0 0 16.5,76.4 8.605,8.605 0 0 0 17.122,76.378 6.461,6.461 0 0 0 21.3,74.55 Q 23.2,72.7 23.2,69.7 A 6.225,6.225 0 0 0 22.621,67.029 6.955,6.955 0 0 0 21.15,65 8.478,8.478 0 0 0 20.629,64.532 6.325,6.325 0 0 0 16.5,63 q -1.225,0 -2.238,0.264 A 5.698,5.698 0 0 0 11.55,64.8 5.976,5.976 0 0 0 10.026,67.64 Z"/>
  </g>
</svg>
