<svg xmlns="http://www.w3.org/2000/svg" viewBox="0 0 16 16">
  <defs id="defs3051">
    <style type="text/css" id="current-color-scheme">
      .ColorScheme-Text {
        color:#f2f2f2;
      }
      </style>
  </defs>
 <path style="fill:currentColor;fill-opacity:1;stroke:none" 
       d="M 5 2 L 5 3 L 3 3 L 3 14 L 7 14 L 8 14 L 12 14 L 13 14 L 13 13 L 13 9 L 13 3 L 11 3 L 11 2 L 5 2 z M 4 4 L 5 4 L 5 5 L 11 5 L 11 4 L 12 4 L 12 6 L 12 12 L 12 13 L 8 13 L 7 13 L 4 13 L 4 12 L 4 6 L 4 4 z M 5 7 L 5 8 L 10 8 L 10 7 L 5 7 z M 5 10 L 5 11 L 8 11 L 8 10 L 5 10 z "
     class="ColorScheme-Text"
     />
</svg>
