<?xml version="1.0" encoding="UTF-8" standalone="no"?>
<svg
   xmlns:dc="http://purl.org/dc/elements/1.1/"
   xmlns:cc="http://creativecommons.org/ns#"
   xmlns:rdf="http://www.w3.org/1999/02/22-rdf-syntax-ns#"
   xmlns:svg="http://www.w3.org/2000/svg"
   xmlns="http://www.w3.org/2000/svg"
   xmlns:sodipodi="http://sodipodi.sourceforge.net/DTD/sodipodi-0.dtd"
   xmlns:inkscape="http://www.inkscape.org/namespaces/inkscape"
   viewBox="0 0 24 24"
   version="1.1"
   id="svg6"
   sodipodi:docname="multi_trash.svg"
   inkscape:version="0.92.1 r">
  <metadata
     id="metadata10">
    <rdf:RDF>
      <cc:Work
         rdf:about="">
        <dc:format>image/svg+xml</dc:format>
        <dc:type
           rdf:resource="http://purl.org/dc/dcmitype/StillImage" />
        <dc:title />
      </cc:Work>
    </rdf:RDF>
  </metadata>
  <sodipodi:namedview
     pagecolor="#ffffff"
     bordercolor="#666666"
     borderopacity="1"
     objecttolerance="10"
     gridtolerance="10"
     guidetolerance="10"
     inkscape:pageopacity="0"
     inkscape:pageshadow="2"
     inkscape:window-width="1366"
     inkscape:window-height="736"
     id="namedview8"
     showgrid="false"
     inkscape:zoom="9.8333333"
     inkscape:cx="-32.491525"
     inkscape:cy="12"
     inkscape:window-x="0"
     inkscape:window-y="32"
     inkscape:window-maximized="1"
     inkscape:current-layer="svg6" />
  <defs
     id="defs3051">
    <style
       type="text/css"
       id="current-color-scheme">
      .ColorScheme-Text {
        color:#f2f2f2;
      }
      </style>
  </defs>
  <path
     style="color:#f2f2f2;fill:currentColor;fill-opacity:1;stroke:#000000;stroke-width:0.1;stroke-miterlimit:4;stroke-dasharray:none;stroke-opacity:1"
     d="m 5.2372881,1.3559322 v 1 1 h 1 v -1 h 3.9999999 v 1 h 1 v -1 -1 z m -4,3 v 1 H 15.237288 v -1 z m 2,2 V 17.355932 h 1 8.9999999 v -1 -9.9999998 h -1 V 16.355932 H 4.2372881 V 6.3559322 Z"
     class="ColorScheme-Text"
     id="path4"
     inkscape:connector-curvature="0" />
  <path
     inkscape:connector-curvature="0"
     style="color:#f2f2f2;fill:currentColor;fill-opacity:1;stroke:#000000;stroke-width:0.1;stroke-miterlimit:4;stroke-dasharray:none;stroke-opacity:1"
     d="m 9.2372876,3.3559322 v 1 1 h 1.0000004 v -1 h 4 v 1 h 1 v -1 -1 z m -4,3 v 1 H 19.237288 v -1 z m 2,2 V 19.355932 h 1 9.0000004 v -1 -9.9999998 h -1 V 18.355932 H 8.2372876 V 8.3559322 Z"
     class="ColorScheme-Text"
     id="path4-6" />
  <path
     inkscape:connector-curvature="0"
     style="color:#f2f2f2;fill:currentColor;fill-opacity:1;stroke:#000000;stroke-width:0.1;stroke-miterlimit:4;stroke-dasharray:none;stroke-opacity:1"
     d="m 13.881356,6.8474576 v 1 1 h 1 v -1 h 4 v 1 h 1 v -1 -1 z m -4.0000001,3 V 10.847458 H 23.881356 V 9.8474576 Z m 2.0000001,2.0000004 v 11 h 1 9 v -1 -10 h -1 v 10 h -8 v -10 z"
     class="ColorScheme-Text"
     id="path4-7" />
</svg>
