<svg fill="#1793D1" height="48" version="1.1" viewBox="0 0 48 48" width="48" xmlns="http://www.w3.org/2000/svg"><path d="M24 4C12.95 4 4 12.95 4 24c0 11.05 8.95 20 20 20C35.05 44 44 35.05 44 24 44 12.95 35.05 4 24 4Zm-2 35.86c-7.89-.98-14-7.7-14-15.86 0-1.23.15-2.43.42-3.58l9.58 9.58 0 2c0 2.21 1.79 4 4 4l0 3.86zm13.79-5.07C35.28 33.17 33.78 32 32 32l-2 0 0-6c0-1.1-.9-2-2-2l-12 0 0-4 4 0c1.1 0 2-.9 2-2l0-4 4 0c2.21 0 4-1.79 4-4l0-.83C35.86 11.54 40 17.28 40 24c0 4.16-1.6 7.94-4.21 10.79z"/></svg>