<svg width="125" height="100">
  <g transform="matrix(0.81,0,0,0.9,-21.679699,-101.53893)">
    <path fill="#ff8c9f" d="M 52.011974,115.59881 H 156.06585 c 11.08,0 20,8.92 20,20 v 44.92065 c 0,11.08 -8.92,20 -20,20 h -13.00673 -13.00674 l -0.40043,21.04927 -25.61304,-21.04927 H 91.032178 78.025443 65.018709 52.011974 c -11.08,0 -20,-8.92 -20,-20 v -44.92065 c 0,-11.08 8.92,-20 20,-20 z"/>
  </g>
  <path fill="#31363b" fill-rule="evenodd" d="M 90.708665,17.385826 85.039375,11.716535 62.362203,34.3937 39.685039,11.716535 l -5.669291,5.669291 22.677164,22.677166 -22.677164,22.677165 5.669291,5.669291 22.677164,-22.677165 22.677172,22.677165 5.66929,-5.669291 -22.67717,-22.677165 z"/>
</svg>
