<?xml version="1.0" encoding="UTF-8" standalone="no"?>
<svg
   xmlns:dc="http://purl.org/dc/elements/1.1/"
   xmlns:cc="http://creativecommons.org/ns#"
   xmlns:rdf="http://www.w3.org/1999/02/22-rdf-syntax-ns#"
   xmlns:svg="http://www.w3.org/2000/svg"
   xmlns="http://www.w3.org/2000/svg"
   xmlns:sodipodi="http://sodipodi.sourceforge.net/DTD/sodipodi-0.dtd"
   xmlns:inkscape="http://www.inkscape.org/namespaces/inkscape"
   fill="#2196F3"
   viewBox="0 0 48 48"
   id="svg2"
   version="1.1"
   inkscape:version="0.92.1 r"
   sodipodi:docname="multi_remove.svg">
  <metadata
     id="metadata10">
    <rdf:RDF>
      <cc:Work
         rdf:about="">
        <dc:format>image/svg+xml</dc:format>
        <dc:type
           rdf:resource="http://purl.org/dc/dcmitype/StillImage" />
      </cc:Work>
    </rdf:RDF>
  </metadata>
  <defs
     id="defs8" />
  <sodipodi:namedview
     pagecolor="#ffffff"
     bordercolor="#666666"
     borderopacity="1"
     objecttolerance="10"
     gridtolerance="10"
     guidetolerance="10"
     inkscape:pageopacity="0"
     inkscape:pageshadow="2"
     inkscape:window-width="1366"
     inkscape:window-height="736"
     id="namedview6"
     showgrid="false"
     inkscape:zoom="4.9166667"
     inkscape:cx="-29.084746"
     inkscape:cy="24"
     inkscape:window-x="0"
     inkscape:window-y="32"
     inkscape:window-maximized="1"
     inkscape:current-layer="svg2" />
  <path
     d="m 29.254237,13.23678 -2.83,-2.83 -11.17,11.17 -11.1699997,-11.17 -2.83,2.83 11.1699997,11.17 -11.1699997,11.17 2.83,2.83 11.1699997,-11.17 11.17,11.17 2.83,-2.83 -11.17,-11.17 z"
     id="path4"
     inkscape:connector-curvature="0"
     style="stroke:#000000;stroke-opacity:1;fill:#4d4d4d;fill-opacity:1" />
  <path
     d="m 38.203389,13.846949 -2.83,-2.83 -11.17,11.17 -11.169999,-11.17 -2.83,2.83 11.169999,11.17 -11.169999,11.17 2.83,2.83 11.169999,-11.17 11.17,11.17 2.83,-2.83 -11.17,-11.17 z"
     id="path4-6"
     inkscape:connector-curvature="0"
     style="stroke:#000000;stroke-opacity:1;fill:#4d4d4d;fill-opacity:1" />
  <path
     d="m 46.745762,13.236779 -2.83,-2.83 -11.17,11.17 -11.169999,-11.17 -2.83,2.83 11.169999,11.17 -11.169999,11.17 2.83,2.83 11.169999,-11.17 11.17,11.17 2.83,-2.83 -11.17,-11.17 z"
     id="path4-6-7"
     inkscape:connector-curvature="0"
     style="stroke:#000000;stroke-opacity:1;fill:#4d4d4d;fill-opacity:1" />
</svg>
