<?xml version="1.0" encoding="UTF-8" standalone="no"?>
<svg
   xmlns:dc="http://purl.org/dc/elements/1.1/"
   xmlns:cc="http://creativecommons.org/ns#"
   xmlns:rdf="http://www.w3.org/1999/02/22-rdf-syntax-ns#"
   xmlns:svg="http://www.w3.org/2000/svg"
   xmlns="http://www.w3.org/2000/svg"
   xmlns:sodipodi="http://sodipodi.sourceforge.net/DTD/sodipodi-0.dtd"
   xmlns:inkscape="http://www.inkscape.org/namespaces/inkscape"
   fill="#F44336"
   viewBox="0 0 48 48"
   id="svg2"
   version="1.1"
   inkscape:version="0.91 r13725"
   sodipodi:docname="multi_trash.svg">
  <metadata
     id="metadata10">
    <rdf:RDF>
      <cc:Work
         rdf:about="">
        <dc:format>image/svg+xml</dc:format>
        <dc:type
           rdf:resource="http://purl.org/dc/dcmitype/StillImage" />
        <dc:title></dc:title>
      </cc:Work>
    </rdf:RDF>
  </metadata>
  <defs
     id="defs8" />
  <sodipodi:namedview
     pagecolor="#ffffff"
     bordercolor="#666666"
     borderopacity="1"
     objecttolerance="10"
     gridtolerance="10"
     guidetolerance="10"
     inkscape:pageopacity="0"
     inkscape:pageshadow="2"
     inkscape:window-width="1366"
     inkscape:window-height="745"
     id="namedview6"
     showgrid="false"
     inkscape:snap-bbox="true"
     inkscape:bbox-paths="true"
     inkscape:snap-bbox-midpoints="true"
     inkscape:zoom="6.9532167"
     inkscape:cx="34.636735"
     inkscape:cy="17.284893"
     inkscape:window-x="0"
     inkscape:window-y="23"
     inkscape:window-maximized="1"
     inkscape:current-layer="svg2" />
  <path
     d="m 6.1220516,35.105869 c 0,2.21 1.7899999,4 3.9999994,4 l 16,0 c 2.21,0 4,-1.79 4,-4 l 0,-24 -23.9999994,0 0,24 z M 32.122051,5.1058693 l -7,0 -2,-2 -10,0 -2,2 -6.9999994,0 0,4.0000001 27.9999994,0 0,-4.0000001 z"
     id="path4"
     inkscape:connector-curvature="0" />
  <path
     style="color:#000000;font-style:normal;font-variant:normal;font-weight:normal;font-stretch:normal;font-size:medium;line-height:normal;font-family:sans-serif;text-indent:0;text-align:start;text-decoration:none;text-decoration-line:none;text-decoration-style:solid;text-decoration-color:#000000;letter-spacing:normal;word-spacing:normal;text-transform:none;direction:ltr;block-progression:tb;writing-mode:lr-tb;baseline-shift:baseline;text-anchor:start;white-space:normal;clip-rule:nonzero;display:inline;overflow:visible;visibility:visible;opacity:1;isolation:auto;mix-blend-mode:normal;color-interpolation:sRGB;color-interpolation-filters:linearRGB;solid-color:#000000;solid-opacity:1;fill-opacity:1;fill-rule:nonzero;stroke:none;stroke-width:1;stroke-linecap:butt;stroke-linejoin:miter;stroke-miterlimit:4;stroke-dasharray:none;stroke-dashoffset:0;stroke-opacity:1;color-rendering:auto;image-rendering:auto;shape-rendering:auto;text-rendering:auto;enable-background:accumulate"
     d="m 12.913067,2.6058696 -2,2 -7.2910154,0 0,4.9999998 28.9999994,0 0,-4.9999998 -0.5,0 -6.792969,0 -2,-2 -10.416015,0 z m 0.416015,1 9.583985,0 2,2 6.708984,0 0,2.9999998 -26.9999994,0 0,-2.9999998 6.7070304,0 2,-2 z m -7.7070304,6.9999994 0,24.5 c 0,2.479985 2.0200149,4.5 4.4999994,4.5 l 16,0 c 2.479985,0 4.5,-2.020015 4.5,-4.5 l 0,-24.5 -24.9999994,0 z m 0.9999999,1 22.9999995,0 0,23.5 c 0,1.940015 -1.559985,3.5 -3.5,3.5 l -16,0 c -1.9400145,0 -3.4999995,-1.559985 -3.4999995,-3.5 l 0,-23.5 z"
     id="path4-5"
     inkscape:connector-curvature="0" />
  <path
     style="color:#000000;display:inline;overflow:visible;visibility:visible;opacity:0.79999994;fill:#000000;fill-opacity:1;fill-rule:nonzero;stroke:#a9d67f;stroke-width:0.14381833;stroke-linecap:butt;stroke-linejoin:miter;stroke-miterlimit:4;stroke-dasharray:none;stroke-dashoffset:0;stroke-opacity:0.98361786;marker:none;enable-background:accumulate"
     d="M 9.1427015,39.420473 C 8.2412915,39.20371 7.5284765,38.763403 6.8408885,37.998641 5.6660138,36.691897 5.7292506,37.528204 5.7292506,23.297225 l 0,-12.630393 12.4440454,0 12.444045,0 -0.03971,12.695122 -0.03971,12.695122 -0.473902,0.9625 c -0.505172,1.026011 -1.109735,1.623899 -2.182322,2.158226 l -0.651598,0.324605 -8.772918,0.02415 c -4.839922,0.01332 -9.0157015,-0.03424 -9.3144705,-0.106081 z M 27.145736,38.486051 c 0.968351,-0.287569 1.921987,-1.149249 2.270022,-2.051131 0.24239,-0.628116 0.259244,-1.457163 0.259244,-12.752529 l 0,-12.08074 -11.541421,-0.03681 -11.5414205,-0.03681 0,12.208991 0,12.208991 0.3955,0.755996 c 0.484318,0.925767 1.240099,1.559628 2.152023,1.804862 0.521558,0.140258 2.6949075,0.187475 8.9677945,0.19483 7.11755,0.0083 8.385896,-0.02192 9.038258,-0.215649 z"
     id="path4214"
     inkscape:connector-curvature="0" />
  <path
     style="color:#000000;display:inline;overflow:visible;visibility:visible;opacity:0.79999994;fill:#000000;fill-opacity:1;fill-rule:nonzero;stroke:#a9d67f;stroke-width:0.14381833;stroke-linecap:butt;stroke-linejoin:miter;stroke-miterlimit:4;stroke-dasharray:none;stroke-dashoffset:0;stroke-opacity:0.98361786;marker:none;enable-background:accumulate"
     d="m 3.715794,7.0713741 0,-2.4449116 3.6352705,0 3.6352685,0 0.999014,-1.0067283 0.999014,-1.0067283 5.113265,0 5.113265,0 0.999014,1.0067283 0.999014,1.0067283 3.707179,0 3.70718,0 0,2.4449116 0,2.4449113 -14.453742,0 -14.453742,0 0,-2.4449113 z m 27.900755,0 0,-1.5820016 -3.347931,0 -3.347931,0 -0.926509,-0.9348192 -0.926509,-0.9348191 -4.898133,0 -4.898133,0 -0.92651,0.9348191 -0.92651,0.9348192 -3.4198395,0 -3.4198395,0 0,1.5820016 0,1.5820013 13.518922,0 13.518923,0 0,-1.5820013 z"
     id="path4216"
     inkscape:connector-curvature="0" />
  <path
     d="m 12.124911,38.629418 c 0,2.21 1.789999,4 3.999999,4 l 16.000001,0 c 2.21,0 4,-1.79 4,-4 l 0,-24 -24,0 0,24 z m 26,-29.9999996 -7,0 -2,-1.9999998 -10.000001,0 -1.999999,1.9999998 -7,0 0,3.9999996 28,0 0,-3.9999996 z"
     id="path4-2"
     inkscape:connector-curvature="0" />
  <path
     style="color:#000000;font-style:normal;font-variant:normal;font-weight:normal;font-stretch:normal;font-size:medium;line-height:normal;font-family:sans-serif;text-indent:0;text-align:start;text-decoration:none;text-decoration-line:none;text-decoration-style:solid;text-decoration-color:#000000;letter-spacing:normal;word-spacing:normal;text-transform:none;direction:ltr;block-progression:tb;writing-mode:lr-tb;baseline-shift:baseline;text-anchor:start;white-space:normal;clip-rule:nonzero;display:inline;overflow:visible;visibility:visible;opacity:1;isolation:auto;mix-blend-mode:normal;color-interpolation:sRGB;color-interpolation-filters:linearRGB;solid-color:#000000;solid-opacity:1;fill-opacity:1;fill-rule:nonzero;stroke:none;stroke-width:1;stroke-linecap:butt;stroke-linejoin:miter;stroke-miterlimit:4;stroke-dasharray:none;stroke-dashoffset:0;stroke-opacity:1;color-rendering:auto;image-rendering:auto;shape-rendering:auto;text-rendering:auto;enable-background:accumulate"
     d="m 18.915927,6.1294186 -2.000001,1.9999998 -7.2910145,0 0,4.9999996 28.9999995,0 0,-4.9999996 -0.5,0 -6.792969,0 -2,-1.9999998 -10.416015,0 z m 0.416014,1 9.583986,0 2,1.9999998 6.708984,0 0,2.9999996 -27,0 0,-2.9999996 6.707031,0 1.999999,-1.9999998 z m -7.70703,6.9999994 0,24.5 c 0,2.479985 2.020014,4.5 4.499999,4.5 l 16.000001,0 c 2.479985,0 4.5,-2.020015 4.5,-4.5 l 0,-24.5 -25,0 z m 0.999999,1 23.000001,0 0,23.5 c 0,1.940015 -1.559985,3.5 -3.5,3.5 l -16.000001,0 c -1.940015,0 -3.5,-1.559985 -3.5,-3.5 l 0,-23.5 z"
     id="path4-5-7"
     inkscape:connector-curvature="0" />
  <path
     style="color:#000000;display:inline;overflow:visible;visibility:visible;opacity:0.79999994;fill:#000000;fill-opacity:1;fill-rule:nonzero;stroke:#a9d67f;stroke-width:0.14381833;stroke-linecap:butt;stroke-linejoin:miter;stroke-miterlimit:4;stroke-dasharray:none;stroke-dashoffset:0;stroke-opacity:0.98361786;marker:none;enable-background:accumulate"
     d="M 15.14556,42.944022 C 14.24415,42.727259 13.531335,42.286952 12.843747,41.52219 11.668873,40.215446 11.73211,41.051753 11.73211,26.820774 l 0,-12.630393 12.444046,0 12.444045,0 -0.03971,12.695122 -0.03971,12.695122 -0.473902,0.9625 c -0.505172,1.026011 -1.109735,1.623899 -2.182322,2.158226 l -0.651598,0.324605 -8.772918,0.02415 c -4.839923,0.01332 -9.015703,-0.03424 -9.314472,-0.106081 z M 33.148596,42.0096 c 0.968351,-0.287569 1.921987,-1.149249 2.270022,-2.051131 0.24239,-0.628116 0.259244,-1.457163 0.259244,-12.752529 l 0,-12.08074 -11.541421,-0.03681 -11.541422,-0.03681 0,12.208991 0,12.208991 0.3955,0.755996 c 0.484318,0.925767 1.240099,1.559628 2.152023,1.804862 0.521558,0.140258 2.694909,0.187475 8.967796,0.19483 7.11755,0.0083 8.385896,-0.02192 9.038258,-0.215649 z"
     id="path4214-0"
     inkscape:connector-curvature="0" />
  <path
     style="color:#000000;display:inline;overflow:visible;visibility:visible;opacity:0.79999994;fill:#000000;fill-opacity:1;fill-rule:nonzero;stroke:#a9d67f;stroke-width:0.14381833;stroke-linecap:butt;stroke-linejoin:miter;stroke-miterlimit:4;stroke-dasharray:none;stroke-dashoffset:0;stroke-opacity:0.98361786;marker:none;enable-background:accumulate"
     d="m 9.7186535,10.594922 0,-2.4449106 3.6352695,0 3.63527,0 0.999014,-1.0067278 0.999013,-1.006729 5.113266,0 5.113265,0 0.999014,1.006729 0.999014,1.0067278 3.707179,0 3.70718,0 0,2.4449106 0,2.444912 -14.453742,0 -14.4537425,0 0,-2.444912 z m 27.9007555,0 0,-1.5820006 -3.347931,0 -3.347931,0 -0.926509,-0.934819 -0.926509,-0.9348188 -4.898133,0 -4.898134,0 -0.926509,0.9348188 -0.92651,0.934819 -3.419841,0 -3.419839,0 0,1.5820006 0,1.582002 13.518923,0 13.518923,0 0,-1.582002 z"
     id="path4216-9"
     inkscape:connector-curvature="0" />
  <path
     d="m 18.638433,41.322547 c 0,2.21 1.79,4 4,4 l 16,0 c 2.21,0 4,-1.79 4,-4 l 0,-24 -24,0 0,24 z m 26,-30 -7,0 -2,-1.9999996 -10,0 -2,1.9999996 -7,0 0,4 28,0 0,-4 z"
     id="path4-6"
     inkscape:connector-curvature="0" />
  <path
     style="color:#000000;font-style:normal;font-variant:normal;font-weight:normal;font-stretch:normal;font-size:medium;line-height:normal;font-family:sans-serif;text-indent:0;text-align:start;text-decoration:none;text-decoration-line:none;text-decoration-style:solid;text-decoration-color:#000000;letter-spacing:normal;word-spacing:normal;text-transform:none;direction:ltr;block-progression:tb;writing-mode:lr-tb;baseline-shift:baseline;text-anchor:start;white-space:normal;clip-rule:nonzero;display:inline;overflow:visible;visibility:visible;opacity:1;isolation:auto;mix-blend-mode:normal;color-interpolation:sRGB;color-interpolation-filters:linearRGB;solid-color:#000000;solid-opacity:1;fill-opacity:1;fill-rule:nonzero;stroke:none;stroke-width:1;stroke-linecap:butt;stroke-linejoin:miter;stroke-miterlimit:4;stroke-dasharray:none;stroke-dashoffset:0;stroke-opacity:1;color-rendering:auto;image-rendering:auto;shape-rendering:auto;text-rendering:auto;enable-background:accumulate"
     d="m 25.429449,8.8225474 -2,1.9999996 -7.291016,0 0,5 29,0 0,-5 -0.5,0 -6.792969,0 -2,-1.9999996 -10.416015,0 z m 0.416015,1 9.583985,0 2,1.9999996 6.708984,0 0,3 -27,0 0,-3 6.707031,0 2,-1.9999996 z m -7.707031,6.9999996 0,24.5 c 0,2.479985 2.020015,4.5 4.5,4.5 l 16,0 c 2.479985,0 4.5,-2.020015 4.5,-4.5 l 0,-24.5 -25,0 z m 1,1 23,0 0,23.5 c 0,1.940015 -1.559985,3.5 -3.5,3.5 l -16,0 c -1.940015,0 -3.5,-1.559985 -3.5,-3.5 l 0,-23.5 z"
     id="path4-5-1"
     inkscape:connector-curvature="0" />
  <path
     style="color:#000000;display:inline;overflow:visible;visibility:visible;opacity:0.79999994;fill:#000000;fill-opacity:1;fill-rule:nonzero;stroke:#a9d67f;stroke-width:0.14381833;stroke-linecap:butt;stroke-linejoin:miter;stroke-miterlimit:4;stroke-dasharray:none;stroke-dashoffset:0;stroke-opacity:0.98361786;marker:none;enable-background:accumulate"
     d="m 21.659083,45.637151 c -0.90141,-0.216763 -1.614225,-0.65707 -2.301813,-1.421832 -1.174875,-1.306744 -1.111638,-0.470437 -1.111638,-14.701416 l 0,-12.630393 12.444046,0 12.444045,0 -0.03971,12.695122 -0.03971,12.695122 -0.473902,0.9625 c -0.505172,1.026011 -1.109735,1.623899 -2.182322,2.158226 l -0.651598,0.324605 -8.772918,0.02415 c -4.839922,0.01332 -9.015702,-0.03424 -9.314471,-0.106081 z m 18.003035,-0.934422 c 0.968351,-0.287569 1.921987,-1.149249 2.270022,-2.051131 0.24239,-0.628116 0.259244,-1.457163 0.259244,-12.752529 l 0,-12.08074 -11.541421,-0.03681 -11.541421,-0.03681 0,12.208991 0,12.208991 0.3955,0.755996 c 0.484318,0.925767 1.240099,1.559628 2.152023,1.804862 0.521558,0.140258 2.694908,0.187475 8.967795,0.19483 7.11755,0.0083 8.385896,-0.02192 9.038258,-0.215649 z"
     id="path4214-8"
     inkscape:connector-curvature="0" />
  <path
     style="color:#000000;display:inline;overflow:visible;visibility:visible;opacity:0.79999994;fill:#000000;fill-opacity:1;fill-rule:nonzero;stroke:#a9d67f;stroke-width:0.14381833;stroke-linecap:butt;stroke-linejoin:miter;stroke-miterlimit:4;stroke-dasharray:none;stroke-dashoffset:0;stroke-opacity:0.98361786;marker:none;enable-background:accumulate"
     d="m 16.232175,13.288052 0,-2.444912 3.635271,0 3.635269,0 0.999014,-1.0067276 0.999014,-1.006729 5.113265,0 5.113265,0 0.999014,1.006729 0.999014,1.0067276 3.707179,0 3.70718,0 0,2.444912 0,2.444911 -14.453742,0 -14.453743,0 0,-2.444911 z m 27.900756,0 0,-1.582002 -3.347931,0 -3.347931,0 -0.926509,-0.934819 -0.926509,-0.9348186 -4.898133,0 -4.898133,0 -0.92651,0.9348186 -0.92651,0.934819 -3.41984,0 -3.41984,0 0,1.582002 0,1.582001 13.518923,0 13.518923,0 0,-1.582001 z"
     id="path4216-7"
     inkscape:connector-curvature="0" />
</svg>
