<?xml version="1.0" encoding="UTF-8" standalone="no"?>
<svg
   xmlns:dc="http://purl.org/dc/elements/1.1/"
   xmlns:cc="http://creativecommons.org/ns#"
   xmlns:rdf="http://www.w3.org/1999/02/22-rdf-syntax-ns#"
   xmlns:svg="http://www.w3.org/2000/svg"
   xmlns="http://www.w3.org/2000/svg"
   xmlns:sodipodi="http://sodipodi.sourceforge.net/DTD/sodipodi-0.dtd"
   xmlns:inkscape="http://www.inkscape.org/namespaces/inkscape"
   fill="#F44336"
   viewBox="0 0 48 48"
   id="svg2"
   version="1.1"
   inkscape:version="0.91 r13725"
   sodipodi:docname="multi_remove.svg">
  <metadata
     id="metadata10">
    <rdf:RDF>
      <cc:Work
         rdf:about="">
        <dc:format>image/svg+xml</dc:format>
        <dc:type
           rdf:resource="http://purl.org/dc/dcmitype/StillImage" />
      </cc:Work>
    </rdf:RDF>
  </metadata>
  <defs
     id="defs8" />
  <sodipodi:namedview
     pagecolor="#ffffff"
     bordercolor="#666666"
     borderopacity="1"
     objecttolerance="10"
     gridtolerance="10"
     guidetolerance="10"
     inkscape:pageopacity="0"
     inkscape:pageshadow="2"
     inkscape:window-width="1366"
     inkscape:window-height="744"
     id="namedview6"
     showgrid="true"
     inkscape:zoom="4.9166667"
     inkscape:cx="2.5423729"
     inkscape:cy="24"
     inkscape:window-x="0"
     inkscape:window-y="24"
     inkscape:window-maximized="1"
     inkscape:current-layer="svg2">
    <inkscape:grid
       type="xygrid"
       id="grid4159" />
  </sodipodi:namedview>
  <path
     d="m 29.254237,11.406271 -2.83,-2.8299998 -11.17,11.1699998 -11.1699997,-11.1699998 -2.83,2.8299998 11.1699997,11.17 -11.1699997,11.17 2.83,2.83 11.1699997,-11.17 11.17,11.17 2.83,-2.83 -11.17,-11.17 z"
     id="path4"
     style="stroke:#000000;stroke-opacity:1"
     inkscape:connector-curvature="0" />
  <path
     d="m 37.59322,11.406271 -2.83,-2.8299999 -11.17,11.1699999 -11.17,-11.1699999 -2.8299993,2.8299999 11.1699993,11.17 -11.1699993,11.17 2.8299993,2.83 11.17,-11.17 11.17,11.17 2.83,-2.83 -11.17,-11.17 z"
     id="path4-3"
     style="stroke:#000000;stroke-opacity:1"
     inkscape:connector-curvature="0" />
  <path
     d="m 45.932203,11.406271 -2.83,-2.83 -11.17,11.170001 -11.17,-11.170001 -2.83,2.83 11.17,11.170001 -11.17,11.17 2.83,2.83 11.17,-11.17 11.17,11.17 2.83,-2.83 -11.17,-11.17 z"
     id="path4-6"
     style="stroke:#000000;stroke-opacity:1"
     inkscape:connector-curvature="0" />
</svg>
