<svg width="1200" height="1200">
  <path d="M 600,1050 C 351.472,1050 150,848.528 150,600 150,351.472 351.472,150 600,150 c 248.528,0 450,201.472 450,450 0,248.528 -201.472,450 -450,450 z M 888.462,827.851 661.974,601.122 l 0,-2.244 226.488,-226.729 0,-60.611 -60.848,0 Q 727.339,411.986 627.043,512.451 613.524,525.358 600,538.267 l -226.487,-226.729 -61.975,0 0,60.611 L 538.026,600 311.538,826.729 l 0,61.733 60.848,0 q 34.363,-34.792 68.735,-69.59 L 600,661.733 l 226.487,226.729 61.975,0 0,-60.611 z" fill="#b37979"/>
</svg>
