<svg xmlns="http://www.w3.org/2000/svg" id="svg2" width="16" height="16" version="1.1" viewBox="0 0 16 16">
 <path style="fill:#d3dae3" d="M 3 3 L 3 5 L 13 5 L 13 3 L 3 3 z M 3 7 L 3 9 L 10.208984 9 L 11.199219 9 L 11.732422 8.359375 A 1.0001 1.0001 0 0 1 12.476562 8 A 1.0001 1.0001 0 0 1 13 8.1347656 L 13 8.1191406 L 13 8.0625 L 13 7 L 3 7 z M 12.5 9 L 11.25 10.5 L 10 12 L 12 12 L 12 16 L 13 16 L 13 12 L 15 12 L 13.75 10.5 L 12.5 9 z M 3 11 L 3 13 L 9 13 L 10 13 A 1.0001 1.0001 0 0 1 9.2324219 11.359375 L 9.53125 11 L 8 11 L 3 11 z"/>
</svg>
