<?xml version="1.0" encoding="UTF-8" standalone="no"?>
<svg
   id="svg12"
   width="32"
   height="32"
   version="1"
   sodipodi:docname="torrent.svg"
   inkscape:version="1.4.2 (ebf0e940d0, 2025-05-08)"
   xmlns:inkscape="http://www.inkscape.org/namespaces/inkscape"
   xmlns:sodipodi="http://sodipodi.sourceforge.net/DTD/sodipodi-0.dtd"
   xmlns="http://www.w3.org/2000/svg"
   xmlns:svg="http://www.w3.org/2000/svg">
  <defs
     id="defs1" />
  <sodipodi:namedview
     id="namedview1"
     pagecolor="#505050"
     bordercolor="#eeeeee"
     borderopacity="1"
     inkscape:showpageshadow="0"
     inkscape:pageopacity="0"
     inkscape:pagecheckerboard="0"
     inkscape:deskcolor="#505050"
     inkscape:zoom="17.46875"
     inkscape:cx="15.971377"
     inkscape:cy="11.878354"
     inkscape:window-width="1307"
     inkscape:window-height="741"
     inkscape:window-x="59"
     inkscape:window-y="27"
     inkscape:window-maximized="1"
     inkscape:current-layer="svg12" />
  <rect
     style="opacity:0.2;fill:#000000;fill-opacity:1"
     id="rect4146"
     width="28"
     height="28"
     x="-31"
     y="-30"
     rx="14"
     ry="14"
     transform="matrix(0,-1,-1,0,0,0)" />
  <rect
     id="rect2"
     width="28"
     height="28"
     x="-30"
     y="-30"
     rx="14"
     ry="14"
     transform="matrix(0,-1,-1,0,0,0)"
     style="fill:#a6369e;fill-opacity:1" />
  <path
     style="fill:#ffffff;fill-opacity:1;opacity:0.2"
     id="rect4150"
     d="M 16 2 C 8.244 2 2 8.244 2 16 C 2 16.168842 2.0195214 16.33264 2.0253906 16.5 C 2.2891326 8.9794325 8.4128418 3 16 3 C 23.587158 3 29.710867 8.9794325 29.974609 16.5 C 29.980479 16.33264 30 16.168842 30 16 C 30 8.244 23.756 2 16 2 z" />
  <text
     xml:space="preserve"
     style="font-weight:bold;font-size:19.1664px;font-family:'Noto Serif';-inkscape-font-specification:'Noto Serif Bold';text-align:center;writing-mode:lr-tb;direction:ltr;text-anchor:middle;opacity:0.2;fill:#000000;fill-opacity:1;stroke-width:1.5972"
     x="15.513416"
     y="23.166636"
     id="text1"><tspan
       sodipodi:role="line"
       id="tspan1"
       x="15.513416"
       y="23.166636"
       style="fill:#000000;fill-opacity:1;stroke-width:1.5972">T</tspan></text>
  <text
     xml:space="preserve"
     style="font-weight:bold;font-size:19.1664px;font-family:'Noto Serif';-inkscape-font-specification:'Noto Serif Bold';text-align:center;writing-mode:lr-tb;direction:ltr;text-anchor:middle;fill:#ffffff;fill-opacity:1;stroke-width:1.5972"
     x="16"
     y="22.842411"
     id="text1-5"><tspan
       sodipodi:role="line"
       id="tspan1-3"
       x="16"
       y="22.842411"
       style="fill:#ffffff;fill-opacity:1;stroke-width:1.5972">T</tspan></text>
</svg>
