<svg xmlns="http://www.w3.org/2000/svg" id="svg2" width="16" height="16" version="1.1" viewBox="0 0 16 16">
 <path style="fill:#5c616c" d="M 3 3 L 3 5 L 13 5 L 13 3 L 3 3 z M 3 7 L 3 9 L 9.4960938 9 L 9.6875 9 L 10.208984 9 C 10.558283 8.5379227 10.743689 8.082187 11.5 8 L 12.03125 8 L 12.5 8 C 12.676296 8 12.843454 8.0509077 13 8.1191406 L 13 8.0625 L 13 7 L 3 7 z M 11.5 9 C 11.000141 9 11 10 11 10 L 9.5 10 C 9.5 10 9 10.001841 9 10.501953 L 9 11.001953 L 14.998047 10.998047 L 14.998047 10.501953 C 14.998047 10.002094 14.498047 10 14.498047 10 L 12.998047 10 C 12.998047 10 12.99986 9 12.5 9 L 11.5 9 z M 3 11 L 3 13 L 8.0625 13 L 9 13 L 9 12.001953 C 8.4477381 12.001898 8.0000552 11.554215 8 11.001953 L 8 11 L 3 11 z M 10 12 L 10 15.5 C 10.000025 15.761718 10.238283 15.999974 10.5 16 L 13.597656 16 C 13.859374 15.999974 13.999976 15.761718 14 15.5 L 14 12 L 10 12 z"/>
 <path d="m 11.499297,9.0000232 c -0.499859,0 -0.499859,1.0000928 -0.499859,1.0000928 l -1.4995791,0 c 0,0 -0.4998589,0.0017 -0.4998589,0.501812 l 0,0.499072 5.99793,-0.002 0,-0.497118 c 0,-0.499859 -0.49986,-0.501812 -0.49986,-0.501812 l -1.49914,0 c 0,0 0,-1.0000932 -0.49986,-1.0000932 l -0.999773,0 z M 10.00007,12 l 0,3.500139 c 2.5e-5,0.261718 0.238143,0.499835 0.49986,0.499861 l 3.098141,0 C 13.859789,15.999974 13.999976,15.761857 14,15.500139 L 14,12 Z" style="fill:#5c616c"/>
</svg>
