<svg xmlns="http://www.w3.org/2000/svg" id="svg2" width="16" height="16" version="1.1" viewBox="0 0 16 16">
 <path style="fill:#5c616c" d="M 3 1 C 1.892 1 1 1.892 1 3 L 1 13 C 1 14.108 1.892 15 3 15 L 13 15 C 14.108 15 15 14.108 15 13 L 15 3 C 15 1.892 14.108 1 13 1 L 3 1 z M 11.001953 3.9941406 A 1 1 0 0 1 12.001953 4.9941406 A 1 1 0 0 1 11.691406 5.7148438 L 9.4082031 7.9980469 L 11.708984 10.296875 A 1 1 0 0 1 12.001953 11.005859 A 1 1 0 0 1 11.001953 12.005859 A 1 1 0 0 1 10.285156 11.701172 L 8.0019531 9.4179688 L 5.7089844 11.710938 A 1 1 0 0 1 5.0019531 12.003906 A 1 1 0 0 1 4.0019531 11.003906 A 1 1 0 0 1 4.2910156 10.304688 L 6.5839844 8.0117188 L 4.2910156 5.71875 A 1 1 0 0 1 3.9980469 5.0117188 A 1 1 0 0 1 4.9980469 4.0117188 L 5.0078125 3.9980469 A 1 1 0 0 1 5.7089844 4.2871094 A 1 1 0 0 1 5.71875 4.296875 L 8.0019531 6.5800781 L 10.294922 4.2871094 A 1 1 0 0 1 11.001953 3.9941406 z"/>
</svg>
