<?xml version="1.0" encoding="UTF-8" standalone="no"?>
<svg
   xmlns:dc="http://purl.org/dc/elements/1.1/"
   xmlns:cc="http://creativecommons.org/ns#"
   xmlns:rdf="http://www.w3.org/1999/02/22-rdf-syntax-ns#"
   xmlns:svg="http://www.w3.org/2000/svg"
   xmlns="http://www.w3.org/2000/svg"
   xmlns:sodipodi="http://sodipodi.sourceforge.net/DTD/sodipodi-0.dtd"
   xmlns:inkscape="http://www.inkscape.org/namespaces/inkscape"
   fill="#F44336"
   viewBox="0 0 48 48"
   id="svg2"
   version="1.1"
   inkscape:version="0.91 r13725"
   sodipodi:docname="pause_all.svg">
  <metadata
     id="metadata10">
    <rdf:RDF>
      <cc:Work
         rdf:about="">
        <dc:format>image/svg+xml</dc:format>
        <dc:type
           rdf:resource="http://purl.org/dc/dcmitype/StillImage" />
      </cc:Work>
    </rdf:RDF>
  </metadata>
  <defs
     id="defs8" />
  <sodipodi:namedview
     pagecolor="#ffffff"
     bordercolor="#666666"
     borderopacity="1"
     objecttolerance="10"
     gridtolerance="10"
     guidetolerance="10"
     inkscape:pageopacity="0"
     inkscape:pageshadow="2"
     inkscape:window-width="1366"
     inkscape:window-height="745"
     id="namedview6"
     showgrid="false"
     inkscape:zoom="6.9532167"
     inkscape:cx="29.719004"
     inkscape:cy="9.448022"
     inkscape:window-x="0"
     inkscape:window-y="23"
     inkscape:window-maximized="1"
     inkscape:current-layer="svg2" />
  <path
     d="m 7.3978135,33.68545 7.9999995,0 0,-27.9999999 -7.9999995,0 0,27.9999999 M 23.397813,5.6854501 l 0,27.9999999 8,0 0,-27.9999999 -8,0"
     id="path4"
     inkscape:connector-curvature="0" />
  <path
     style="fill:none;fill-rule:evenodd;stroke:#000000;stroke-width:1px;stroke-linecap:butt;stroke-linejoin:miter;stroke-opacity:1"
     d="M 23.363915,5.5498569 31.397813,5.6515518 31.296118,33.719348 23.26222,33.617653 Z"
     id="path4153"
     inkscape:connector-curvature="0" />
  <path
     style="fill:none;fill-rule:evenodd;stroke:#000000;stroke-width:1px;stroke-linecap:butt;stroke-linejoin:miter;stroke-opacity:1"
     d="m 7.4066435,5.6455022 7.9819175,0 -0.07191,28.0445738 -7.9819165,0 z"
     id="path4155"
     inkscape:connector-curvature="0" />
  <path
     inkscape:connector-curvature="0"
     d="m 11.617491,39.183733 8,0 0,-28 -8,0 0,28 m 16,-28 0,28 8,0 0,-28 -8,0"
     id="path4-6" />
  <path
     style="fill:none;fill-rule:evenodd;stroke:#000000;stroke-width:1px;stroke-linecap:butt;stroke-linejoin:miter;stroke-opacity:1"
     d="m 27.583593,11.04814 8.033898,0.101695 -0.101695,28.067796 -8.033898,-0.101695 z"
     id="path4153-7"
     inkscape:connector-curvature="0" />
  <path
     style="fill:none;fill-rule:evenodd;stroke:#000000;stroke-width:1px;stroke-linecap:butt;stroke-linejoin:miter;stroke-opacity:1"
     d="m 11.626321,11.143785 7.981918,0 -0.07191,28.044574 -7.981917,0 z"
     id="path4155-5"
     inkscape:connector-curvature="0" />
  <path
     inkscape:connector-curvature="0"
     d="m 15.788222,44.217374 8,0 0,-27.999999 -8,0 0,27.999999 m 16.000001,-27.999999 0,27.999999 8,0 0,-27.999999 -8,0"
     id="path4-3" />
  <path
     style="fill:none;fill-rule:evenodd;stroke:#000000;stroke-width:1px;stroke-linecap:butt;stroke-linejoin:miter;stroke-opacity:1"
     d="m 31.754325,16.081781 8.033898,0.101695 -0.101695,28.067796 -8.033898,-0.101695 z"
     id="path4153-5"
     inkscape:connector-curvature="0" />
  <path
     style="fill:none;fill-rule:evenodd;stroke:#000000;stroke-width:1px;stroke-linecap:butt;stroke-linejoin:miter;stroke-opacity:1"
     d="m 15.797052,16.177427 7.981918,0 -0.07191,28.044573 -7.981917,0 z"
     id="path4155-6"
     inkscape:connector-curvature="0" />
  <path
     style="color:#000000;display:inline;overflow:visible;visibility:visible;opacity:0.79999994;fill:#2196f3;fill-opacity:1;fill-rule:nonzero;stroke:#a9d67f;stroke-width:0.14381833;stroke-linecap:butt;stroke-linejoin:miter;stroke-miterlimit:4;stroke-dasharray:none;stroke-dashoffset:0;stroke-opacity:0.98361786;marker:none;enable-background:accumulate"
     d="m 16.3439,30.224897 0,-13.447014 3.45164,0 3.45164,0 -1.44e-4,5.57296 c -7.9e-5,3.065128 -0.04303,9.116285 -0.09545,13.447014 l -0.0953,7.874053 -3.356193,0 -3.356193,0 0,-13.447013 z"
     id="path4154"
     inkscape:connector-curvature="0" />
  <path
     style="color:#000000;display:inline;overflow:visible;visibility:visible;opacity:0.79999994;fill:#2196f3;fill-opacity:1;fill-rule:nonzero;stroke:#a9d67f;stroke-width:0.14381833;stroke-linecap:butt;stroke-linejoin:miter;stroke-miterlimit:4;stroke-dasharray:none;stroke-dashoffset:0;stroke-opacity:0.98361786;marker:none;enable-background:accumulate"
     d="m 32.262132,43.564047 c -0.03442,-0.05933 -0.02898,-6.142841 0.01207,-13.518923 l 0.07465,-13.411059 1.682678,0 c 0.925473,0 2.469459,0.0423 3.431078,0.09401 l 1.7484,0.09401 -4.79e-4,11.159774 c -2.64e-4,6.137874 -0.04275,12.179086 -0.09443,13.424912 l -0.09395,2.265138 -3.348727,0 c -1.841799,0 -3.376886,-0.04854 -3.411304,-0.107863 z"
     id="path4156"
     inkscape:connector-curvature="0" />
  <path
     style="color:#000000;display:inline;overflow:visible;visibility:visible;opacity:0.79999994;fill:#2196f3;fill-opacity:1;fill-rule:nonzero;stroke:#a9d67f;stroke-width:0.14381833;stroke-linecap:butt;stroke-linejoin:miter;stroke-miterlimit:4;stroke-dasharray:none;stroke-dashoffset:0;stroke-opacity:0.98361786;marker:none;enable-background:accumulate"
     d="m 28.091401,38.530405 c -0.03442,-0.05933 -0.02898,-6.14284 0.01207,-13.518923 l 0.07465,-13.411059 1.682679,0 c 0.925473,0 2.469458,0.04231 3.431078,0.09401 l 1.748399,0.09401 0,1.894623 0,1.894624 -1.941547,-0.06585 -1.941547,-0.06585 0,11.596137 0,11.596136 -1.501605,0 c -0.825883,0 -1.529765,-0.04854 -1.564182,-0.107864 z"
     id="path4158"
     inkscape:connector-curvature="0" />
  <path
     style="color:#000000;display:inline;overflow:visible;visibility:visible;opacity:0.79999994;fill:#2196f3;fill-opacity:1;fill-rule:nonzero;stroke:#a9d67f;stroke-width:0.14381833;stroke-linecap:butt;stroke-linejoin:miter;stroke-miterlimit:4;stroke-dasharray:none;stroke-dashoffset:0;stroke-opacity:0.98361786;marker:none;enable-background:accumulate"
     d="m 25.416897,33.065793 -1.210014,-0.04883 0.09477,-8.694811 0.09477,-8.694813 -0.308677,0 c -0.300933,0 -0.306347,-0.03518 -0.21582,-1.402229 0.05107,-0.771226 0.09319,-2.906928 0.0936,-4.746005 l 7.44e-4,-3.3437761 3.45164,0 3.45164,0 0,2.2043618 0,2.2043623 -1.941548,-0.06585 -1.941547,-0.06585 0,11.380409 c 0,9.02406 -0.03722,11.374348 -0.179773,11.351134 -0.09887,-0.0161 -0.724279,-0.05125 -1.389786,-0.07811 z"
     id="path4160"
     inkscape:connector-curvature="0" />
  <path
     style="color:#000000;display:inline;overflow:visible;visibility:visible;opacity:0.79999994;fill:#2196f3;fill-opacity:1;fill-rule:nonzero;stroke:#a9d67f;stroke-width:0.14381833;stroke-linecap:butt;stroke-linejoin:miter;stroke-miterlimit:4;stroke-dasharray:none;stroke-dashoffset:0;stroke-opacity:0.98361786;marker:none;enable-background:accumulate"
     d="m 12.173168,25.191255 0,-13.447013 3.45164,0 3.45164,0 0,1.941547 0,1.941548 -1.941547,0 -1.941548,0 0,11.505466 0,11.505466 -1.510092,0 -1.510093,0 0,-13.447014 z"
     id="path4162"
     inkscape:connector-curvature="0" />
  <path
     style="color:#000000;display:inline;overflow:visible;visibility:visible;opacity:0.79999994;fill:#2196f3;fill-opacity:1;fill-rule:nonzero;stroke:#a9d67f;stroke-width:0.14381833;stroke-linecap:butt;stroke-linejoin:miter;stroke-miterlimit:4;stroke-dasharray:none;stroke-dashoffset:0;stroke-opacity:0.98361786;marker:none;enable-background:accumulate"
     d="m 7.8586184,29.817183 c 0,-1.845794 0.042994,-7.92931 0.095543,-13.518923 l 0.095543,-10.1629331 3.3560976,0 3.356097,0 0,2.2291841 0,2.229184 -1.869638,0 -1.869638,0 0,11.289739 0,11.289739 -1.5820023,0 -1.5820016,0 0,-3.35599 z"
     id="path4164"
     inkscape:connector-curvature="0" />
</svg>
