<?xml version="1.0" encoding="UTF-8" standalone="no"?>
<svg
   xmlns:dc="http://purl.org/dc/elements/1.1/"
   xmlns:cc="http://creativecommons.org/ns#"
   xmlns:rdf="http://www.w3.org/1999/02/22-rdf-syntax-ns#"
   xmlns:svg="http://www.w3.org/2000/svg"
   xmlns="http://www.w3.org/2000/svg"
   xmlns:sodipodi="http://sodipodi.sourceforge.net/DTD/sodipodi-0.dtd"
   xmlns:inkscape="http://www.inkscape.org/namespaces/inkscape"
   fill="#F44336"
   viewBox="0 0 48 48"
   id="svg2"
   version="1.1"
   inkscape:version="0.91 r13725"
   sodipodi:docname="select_all.svg">
  <metadata
     id="metadata10">
    <rdf:RDF>
      <cc:Work
         rdf:about="">
        <dc:format>image/svg+xml</dc:format>
        <dc:type
           rdf:resource="http://purl.org/dc/dcmitype/StillImage" />
        <dc:title></dc:title>
      </cc:Work>
    </rdf:RDF>
  </metadata>
  <defs
     id="defs8" />
  <sodipodi:namedview
     pagecolor="#ffffff"
     bordercolor="#666666"
     borderopacity="1"
     objecttolerance="10"
     gridtolerance="10"
     guidetolerance="10"
     inkscape:pageopacity="0"
     inkscape:pageshadow="2"
     inkscape:window-width="1366"
     inkscape:window-height="745"
     id="namedview6"
     showgrid="false"
     inkscape:zoom="4.9166667"
     inkscape:cx="20.440678"
     inkscape:cy="24"
     inkscape:window-x="0"
     inkscape:window-y="23"
     inkscape:window-maximized="1"
     inkscape:current-layer="svg2" />
  <path
     d="M18 32.34L9.66 24l-2.83 2.83L18 38l24-24-2.83-2.83z"
     id="path4" />
  <path
     style="color:#000000;font-style:normal;font-variant:normal;font-weight:normal;font-stretch:normal;font-size:medium;line-height:normal;font-family:sans-serif;text-indent:0;text-align:start;text-decoration:none;text-decoration-line:none;text-decoration-style:solid;text-decoration-color:#000000;letter-spacing:normal;word-spacing:normal;text-transform:none;direction:ltr;block-progression:tb;writing-mode:lr-tb;baseline-shift:baseline;text-anchor:start;white-space:normal;clip-rule:nonzero;display:inline;overflow:visible;visibility:visible;opacity:1;isolation:auto;mix-blend-mode:normal;color-interpolation:sRGB;color-interpolation-filters:linearRGB;solid-color:#000000;solid-opacity:1;fill:#000000;fill-opacity:1;fill-rule:nonzero;stroke:none;stroke-width:1;stroke-linecap:butt;stroke-linejoin:miter;stroke-miterlimit:4;stroke-dasharray:none;stroke-dashoffset:0;stroke-opacity:1;color-rendering:auto;image-rendering:auto;shape-rendering:auto;text-rendering:auto;enable-background:accumulate"
     d="M 39.365764,10.488778 18.195842,31.6587 9.8559987,23.318856 6.3188887,26.855965 18.195842,38.732918 42.902873,14.025887 39.365764,10.488778 Z m 0,1.414062 2.123047,2.123047 L 18.195842,37.318856 7.7329517,26.855965 9.8559987,24.732918 18.195842,33.072762 18.549358,32.719247 39.365764,11.90284 Z"
     id="path4-3"
     inkscape:connector-curvature="0" />
  <path
     inkscape:connector-curvature="0"
     d="m 18.202678,41.491864 -8.3399994,-8.34 -2.83,2.83 11.1699994,11.17 24,-24 -2.83,-2.83 z"
     id="path4-5" />
  <path
     style="color:#000000;font-style:normal;font-variant:normal;font-weight:normal;font-stretch:normal;font-size:medium;line-height:normal;font-family:sans-serif;text-indent:0;text-align:start;text-decoration:none;text-decoration-line:none;text-decoration-style:solid;text-decoration-color:#000000;letter-spacing:normal;word-spacing:normal;text-transform:none;direction:ltr;block-progression:tb;writing-mode:lr-tb;baseline-shift:baseline;text-anchor:start;white-space:normal;clip-rule:nonzero;display:inline;overflow:visible;visibility:visible;opacity:1;isolation:auto;mix-blend-mode:normal;color-interpolation:sRGB;color-interpolation-filters:linearRGB;solid-color:#000000;solid-opacity:1;fill:#000000;fill-opacity:1;fill-rule:nonzero;stroke:none;stroke-width:1;stroke-linecap:butt;stroke-linejoin:miter;stroke-miterlimit:4;stroke-dasharray:none;stroke-dashoffset:0;stroke-opacity:1;color-rendering:auto;image-rendering:auto;shape-rendering:auto;text-rendering:auto;enable-background:accumulate"
     d="M 39.568442,19.640642 18.39852,40.810564 10.058677,32.47072 6.5215673,36.007829 18.39852,47.884782 43.105551,23.177751 39.568442,19.640642 Z m 0,1.414062 2.123047,2.123047 L 18.39852,46.47072 7.9356303,36.007829 10.058677,33.884782 18.39852,42.224626 18.752036,41.871111 39.568442,21.054704 Z"
     id="path4-3-3"
     inkscape:connector-curvature="0" />
  <path
     inkscape:connector-curvature="0"
     d="m 18.202678,22.16983 -8.3399994,-8.34 -2.83,2.83 11.1699994,11.17 24,-24 -2.83,-2.83000001 z"
     id="path4-56" />
  <path
     style="color:#000000;font-style:normal;font-variant:normal;font-weight:normal;font-stretch:normal;font-size:medium;line-height:normal;font-family:sans-serif;text-indent:0;text-align:start;text-decoration:none;text-decoration-line:none;text-decoration-style:solid;text-decoration-color:#000000;letter-spacing:normal;word-spacing:normal;text-transform:none;direction:ltr;block-progression:tb;writing-mode:lr-tb;baseline-shift:baseline;text-anchor:start;white-space:normal;clip-rule:nonzero;display:inline;overflow:visible;visibility:visible;opacity:1;isolation:auto;mix-blend-mode:normal;color-interpolation:sRGB;color-interpolation-filters:linearRGB;solid-color:#000000;solid-opacity:1;fill:#000000;fill-opacity:1;fill-rule:nonzero;stroke:none;stroke-width:1;stroke-linecap:butt;stroke-linejoin:miter;stroke-miterlimit:4;stroke-dasharray:none;stroke-dashoffset:0;stroke-opacity:1;color-rendering:auto;image-rendering:auto;shape-rendering:auto;text-rendering:auto;enable-background:accumulate"
     d="M 39.568442,0.31860799 18.39852,21.48853 10.058677,13.148686 6.5215673,16.685795 18.39852,28.562748 43.105551,3.855717 39.568442,0.31860799 Z m 0,1.41406201 2.123047,2.123047 L 18.39852,27.148686 7.9356303,16.685795 10.058677,14.562748 18.39852,22.902592 18.752036,22.549077 39.568442,1.73267 Z"
     id="path4-3-2"
     inkscape:connector-curvature="0" />
  <path
     style="color:#000000;display:inline;overflow:visible;visibility:visible;opacity:0.79999994;fill:#2196f3;fill-opacity:1;fill-rule:nonzero;stroke:#a9d67f;stroke-width:0.20338982;stroke-linecap:butt;stroke-linejoin:miter;stroke-miterlimit:4;stroke-dasharray:none;stroke-dashoffset:0;stroke-opacity:0.98361786;marker:none;enable-background:accumulate"
     d="m 13.164884,21.829318 -5.1372093,-5.140174 1.0229768,-1.007595 1.0229765,-1.007595 4.16714,4.163421 4.167139,4.16342 10.572225,-10.570758 10.572224,-10.5707585 1.02395,1.0085525 1.02395,1.0085524 -11.545223,11.5465546 c -6.349871,6.350604 -11.591957,11.546554 -11.64908,11.546554 -0.05712,0 -2.415604,-2.313078 -5.241069,-5.140174 z"
     id="path4235"
     inkscape:connector-curvature="0" />
  <path
     style="color:#000000;display:inline;overflow:visible;visibility:visible;opacity:0.79999994;fill:#2196f3;fill-opacity:1;fill-rule:nonzero;stroke:#a9d67f;stroke-width:0.20338982;stroke-linecap:butt;stroke-linejoin:miter;stroke-miterlimit:4;stroke-dasharray:none;stroke-dashoffset:0;stroke-opacity:0.98361786;marker:none;enable-background:accumulate"
     d="m 12.961494,31.998809 -5.1372092,-5.140174 1.0229769,-1.007595 1.0229769,-1.007594 4.1671394,4.16342 4.16714,4.16342 10.572224,-10.570757 10.572224,-10.570759 1.02395,1.008552 1.02395,1.008553 -11.545223,11.546554 c -6.349871,6.350605 -11.591957,11.546554 -11.64908,11.546554 -0.05712,0 -2.415604,-2.313077 -5.241069,-5.140174 z"
     id="path4237"
     inkscape:connector-curvature="0" />
  <path
     style="color:#000000;display:inline;overflow:visible;visibility:visible;opacity:0.79999994;fill:#2196f3;fill-opacity:1;fill-rule:nonzero;stroke:#a9d67f;stroke-width:0.20338982;stroke-linecap:butt;stroke-linejoin:miter;stroke-miterlimit:4;stroke-dasharray:none;stroke-dashoffset:0;stroke-opacity:0.98361786;marker:none;enable-background:accumulate"
     d="m 13.164884,41.151351 -5.1372093,-5.140174 1.0229768,-1.007594 1.0229765,-1.007595 4.16714,4.163421 4.167139,4.163419 10.572225,-10.570757 10.572224,-10.570759 1.02395,1.008553 1.02395,1.008552 -11.545223,11.546554 c -6.349871,6.350605 -11.591957,11.546554 -11.64908,11.546554 -0.05712,0 -2.415604,-2.313077 -5.241069,-5.140174 z"
     id="path4239"
     inkscape:connector-curvature="0" />
</svg>
