<?xml version="1.0" encoding="UTF-8" standalone="no"?>
<svg
   xmlns:dc="http://purl.org/dc/elements/1.1/"
   xmlns:cc="http://creativecommons.org/ns#"
   xmlns:rdf="http://www.w3.org/1999/02/22-rdf-syntax-ns#"
   xmlns:svg="http://www.w3.org/2000/svg"
   xmlns="http://www.w3.org/2000/svg"
   xmlns:sodipodi="http://sodipodi.sourceforge.net/DTD/sodipodi-0.dtd"
   xmlns:inkscape="http://www.inkscape.org/namespaces/inkscape"
   fill="#F44336"
   viewBox="0 0 48 48"
   id="svg2"
   version="1.1"
   inkscape:version="0.91 r13725"
   sodipodi:docname="stop_all.svg">
  <metadata
     id="metadata10">
    <rdf:RDF>
      <cc:Work
         rdf:about="">
        <dc:format>image/svg+xml</dc:format>
        <dc:type
           rdf:resource="http://purl.org/dc/dcmitype/StillImage" />
      </cc:Work>
    </rdf:RDF>
  </metadata>
  <defs
     id="defs8" />
  <sodipodi:namedview
     pagecolor="#ffffff"
     bordercolor="#666666"
     borderopacity="1"
     objecttolerance="10"
     gridtolerance="10"
     guidetolerance="10"
     inkscape:pageopacity="0"
     inkscape:pageshadow="2"
     inkscape:window-width="1366"
     inkscape:window-height="745"
     id="namedview6"
     showgrid="false"
     inkscape:zoom="4.9166667"
     inkscape:cx="-16.576271"
     inkscape:cy="18.892968"
     inkscape:window-x="0"
     inkscape:window-y="23"
     inkscape:window-maximized="1"
     inkscape:current-layer="svg2" />
  <path
     d="m 7.7288136,6.7118644 24.0000004,0 0,23.9999996 -24.0000004,0 z"
     id="path4"
     inkscape:connector-curvature="0" />
  <path
     style="fill:none;fill-rule:evenodd;stroke:#000000;stroke-width:1px;stroke-linecap:butt;stroke-linejoin:miter;stroke-opacity:1"
     d="m 7.7196666,6.7033504 23.9996844,-0.01798 0,23.9817056 -24.0176614,0.03595 z"
     id="path4170"
     inkscape:connector-curvature="0" />
  <path
     d="m 13.23882,11.40731 24.000001,0 0,23.999999 -24.000001,0 z"
     id="path4-7"
     inkscape:connector-curvature="0" />
  <path
     style="fill:none;fill-rule:evenodd;stroke:#000000;stroke-width:1px;stroke-linecap:butt;stroke-linejoin:miter;stroke-opacity:1"
     d="m 13.229673,11.398796 23.999685,-0.01798 0,23.981705 -24.017662,0.03595 z"
     id="path4170-5"
     inkscape:connector-curvature="0" />
  <path
     d="m 18.323565,16.288665 24.000001,0 0,24 -24.000001,0 z"
     id="path4-3"
     inkscape:connector-curvature="0" />
  <path
     style="fill:none;fill-rule:evenodd;stroke:#000000;stroke-width:1px;stroke-linecap:butt;stroke-linejoin:miter;stroke-opacity:1"
     d="m 18.314418,16.280151 23.999685,-0.01798 0,23.981706 -24.017662,0.03595 z"
     id="path4170-56"
     inkscape:connector-curvature="0" />
  <path
     style="color:#000000;display:inline;overflow:visible;visibility:visible;opacity:0.79999994;fill:#2196f3;fill-opacity:1;fill-rule:nonzero;stroke:#a9d67f;stroke-width:0.20338982;stroke-linecap:butt;stroke-linejoin:miter;stroke-miterlimit:4;stroke-dasharray:none;stroke-dashoffset:0;stroke-opacity:0.98361786;marker:none;enable-background:accumulate"
     d="m 18.813559,28.212117 0,-11.389831 11.491526,0 11.491525,0 0,11.389831 0,11.38983 -11.491525,0 -11.491526,0 0,-11.38983 z"
     id="path4151"
     inkscape:connector-curvature="0" />
  <path
     style="color:#000000;display:inline;overflow:visible;visibility:visible;opacity:0.79999994;fill:#2196f3;fill-opacity:1;fill-rule:nonzero;stroke:#a9d67f;stroke-width:0.20338982;stroke-linecap:butt;stroke-linejoin:miter;stroke-miterlimit:4;stroke-dasharray:none;stroke-dashoffset:0;stroke-opacity:0.98361786;marker:none;enable-background:accumulate"
     d="m 13.728814,23.330761 0,-11.389831 11.491525,0 11.491525,0 0,1.830509 0,1.830508 -9.457627,0 -9.457627,0 0,9.559322 0,9.559322 -2.033898,0 -2.033898,0 0,-11.38983 z"
     id="path4153"
     inkscape:connector-curvature="0" />
  <path
     style="color:#000000;display:inline;overflow:visible;visibility:visible;opacity:0.79999994;fill:#2196f3;fill-opacity:1;fill-rule:nonzero;stroke:#a9d67f;stroke-width:0.20338982;stroke-linecap:butt;stroke-linejoin:miter;stroke-miterlimit:4;stroke-dasharray:none;stroke-dashoffset:0;stroke-opacity:0.98361786;marker:none;enable-background:accumulate"
     d="m 8.2372882,18.652795 0,-11.3898309 11.4915258,0 11.491525,0 0,1.7288135 0,1.7288134 -9.254237,0 -9.254238,0 0,9.661017 0,9.661017 -2.237288,0 -2.2372878,0 0,-11.38983 z"
     id="path4155"
     inkscape:connector-curvature="0" />
</svg>
