<svg xmlns="http://www.w3.org/2000/svg" id="svg12" width="32" height="32" version="1">
 <rect style="opacity:0.2;fill:#000000;fill-opacity:1" id="rect4146" width="28" height="28" x="-31" y="-30" rx="14" ry="14" transform="matrix(0,-1,-1,0,0,0)"/>
 <rect id="rect2" width="28" height="28" x="-30" y="-30" rx="14" ry="14" transform="matrix(0,-1,-1,0,0,0)" style="fill:#a6369e;fill-opacity:1"/>
 <path id="path4148" d="M 12.027815,11.000259 A 1.0046462,0.97279894 0 0 0 11,11.973525 l 0,10.053967 a 1.0046462,0.97279894 0 0 0 1.506798,0.842274 l 4.495642,-2.512825 4.495643,-2.514091 a 1.0046462,0.97279894 0 0 0 0,-1.684483 l -4.495574,-2.514492 -4.495574,-2.513158 a 1.0046462,0.97279894 0 0 0 -0.479188,-0.130658 z" style="opacity:0.2;fill:#000000"/>
 <path style="fill:#ffffff" id="path10" d="M 12.027815,10.000259 A 1.0046462,0.97279894 0 0 0 11,10.973525 l 0,10.053967 a 1.0046462,0.97279894 0 0 0 1.506798,0.842274 l 4.495642,-2.512825 4.495643,-2.514091 a 1.0046462,0.97279894 0 0 0 0,-1.684483 l -4.495574,-2.514492 -4.495574,-2.513158 a 1.0046462,0.97279894 0 0 0 -0.479188,-0.130658 z"/>
 <path style="fill:#ffffff;fill-opacity:1;opacity:0.2" id="rect4150" d="M 16 2 C 8.244 2 2 8.244 2 16 C 2 16.168842 2.0195214 16.33264 2.0253906 16.5 C 2.2891326 8.9794325 8.4128418 3 16 3 C 23.587158 3 29.710867 8.9794325 29.974609 16.5 C 29.980479 16.33264 30 16.168842 30 16 C 30 8.244 23.756 2 16 2 z"/>
 <circle id="circle14" cx="24" cy="23" r="8" style="fill:#4caf50;fill-rule:evenodd;fill-opacity:1"/>
 <path id="path18" d="M 31.979,23.424 A 8,8 0 0 1 24,31 8,8 0 0 1 16.021,23.576 8,8 0 0 0 16,24 a 8,8 0 0 0 8,8 8,8 0 0 0 8,-8 8,8 0 0 0 -0.021,-0.576 z" style="opacity:0.2;fill-rule:evenodd"/>
 <g id="g4145" transform="matrix(0,-1,1,0,1,47)">
  <rect id="rect4141" width="2" height="8" x="23" y="19" style="opacity:1;fill:#ffffff;fill-opacity:1;stroke:none;stroke-width:4;stroke-linecap:round;stroke-linejoin:round;stroke-miterlimit:4;stroke-dasharray:none;stroke-opacity:1"/>
  <rect style="opacity:1;fill:#ffffff;fill-opacity:1;stroke:none;stroke-width:4;stroke-linecap:round;stroke-linejoin:round;stroke-miterlimit:4;stroke-dasharray:none;stroke-opacity:1" id="rect4143" width="2" height="8" x="22" y="-28" transform="matrix(0,1,-1,0,0,0)"/>
 </g>
</svg>
