<?xml version="1.0" encoding="UTF-8" standalone="no"?>
<svg
   xmlns:dc="http://purl.org/dc/elements/1.1/"
   xmlns:cc="http://creativecommons.org/ns#"
   xmlns:rdf="http://www.w3.org/1999/02/22-rdf-syntax-ns#"
   xmlns:svg="http://www.w3.org/2000/svg"
   xmlns="http://www.w3.org/2000/svg"
   xmlns:sodipodi="http://sodipodi.sourceforge.net/DTD/sodipodi-0.dtd"
   xmlns:inkscape="http://www.inkscape.org/namespaces/inkscape"
   width="48"
   height="48"
   version="1"
   id="svg16"
   sodipodi:docname="down.svg"
   inkscape:version="0.92.2 5c3e80d, 2017-08-06">
  <metadata
     id="metadata22">
    <rdf:RDF>
      <cc:Work
         rdf:about="">
        <dc:format>image/svg+xml</dc:format>
        <dc:type
           rdf:resource="http://purl.org/dc/dcmitype/StillImage" />
        <dc:title></dc:title>
      </cc:Work>
    </rdf:RDF>
  </metadata>
  <defs
     id="defs20" />
  <sodipodi:namedview
     pagecolor="#ffffff"
     bordercolor="#666666"
     borderopacity="1"
     objecttolerance="10"
     gridtolerance="10"
     guidetolerance="10"
     inkscape:pageopacity="0"
     inkscape:pageshadow="2"
     inkscape:window-width="1366"
     inkscape:window-height="694"
     id="namedview18"
     showgrid="false"
     inkscape:zoom="4.9166667"
     inkscape:cx="34.860066"
     inkscape:cy="23.250177"
     inkscape:window-x="0"
     inkscape:window-y="48"
     inkscape:window-maximized="1"
     inkscape:current-layer="g834" />
  <rect
     width="40"
     height="40"
     x="-44"
     y="-44"
     rx="20"
     ry="20"
     transform="matrix(0,-1,-1,0,0,0)"
     id="rect2"
     style="fill:#4f4f4f;fill-opacity:1"
     fill="#30a3db" />
  <path
     fill="#fff"
     opacity=".2"
     d="m24 4c-11.08 0-20 8.92-20 20 0 0.168 0.008 0.333 0.0117 0.5 0.2647-10.846 9.0763-19.5 19.988-19.5s19.724 8.6539 19.988 19.5c0.004-0.16686 0.0117-0.33213 0.0117-0.5 0-11.08-8.92-20-20-20z"
     id="path12" />
  <path
     opacity=".2"
     d="m4.0117 24.5c-0.0041 0.167-0.0117 0.332-0.0117 0.5 0 11.08 8.92 20 20 20s20-8.92 20-20c0-0.168-0.008-0.333-0.012-0.5-0.264 10.846-9.076 19.5-19.988 19.5s-19.724-8.654-19.988-19.5z"
     id="path14" />
  <g
     id="g886"
     transform="translate(0,2)">
    <g
       transform="matrix(1,0,0,-1,0,38.499761)"
       id="g834">
      <path
         style="opacity:0.2;fill-opacity:1;stroke-width:1.85714281"
         id="path830"
         d="m 11,17.571044 h 5.571429 L 24,25.928186 31.428571,17.571044 H 37 L 24.246629,32.428 Z"
         inkscape:connector-curvature="0" />
    </g>
    <g
       id="g878"
       transform="translate(0,5.500239)">
      <path
         inkscape:connector-curvature="0"
         d="m 11,17.571044 h 5.571429 L 24,25.928186 31.428571,17.571044 H 37 L 24.246629,32.428 Z"
         id="path874"
         style="opacity:0.2;fill-opacity:1;stroke-width:1.85714281" />
      <path
         style="fill:#ff9b2a;fill-opacity:1;stroke-width:1.85714281"
         id="path876"
         d="m 11,16.571522 h 5.571429 L 24,24.928664 31.428571,16.571522 H 37 L 24.246629,31.428478 Z"
         inkscape:connector-curvature="0" />
    </g>
  </g>
</svg>
