<svg xmlns="http://www.w3.org/2000/svg" id="svg16" width="48" height="48" version="1">
 <rect id="rect2" width="40" height="40" x="-44" y="-44" rx="20" ry="20" transform="matrix(0,-1,-1,0,0,0)" style="fill:#a56b3b;fill-opacity:1"/>
 <path id="path12" fill="#fff" opacity=".2" d="m24 4c-11.08 0-20 8.92-20 20 0 0.168 0.008 0.333 0.0117 0.5 0.2647-10.846 9.0763-19.5 19.988-19.5s19.724 8.6539 19.988 19.5c0.004-0.16686 0.0117-0.33213 0.0117-0.5 0-11.08-8.92-20-20-20z"/>
 <path id="path14" opacity=".2" d="m4.0117 24.5c-0.0041 0.167-0.0117 0.332-0.0117 0.5 0 11.08 8.92 20 20 20s20-8.92 20-20c0-0.168-0.008-0.333-0.012-0.5-0.264 10.846-9.076 19.5-19.988 19.5s-19.724-8.654-19.988-19.5z"/>
 <rect id="rect4137" width="6" height="26" x="-28" y="11" transform="matrix(0,-1,1,0,0,0)" style="opacity:0.2;fill:#000000;stroke-width:1.29999995"/>
 <rect style="fill:#ffffff;stroke-width:1.29999995" id="rect4" width="6" height="26" x="-27" y="11" transform="matrix(0,-1,1,0,0,0)"/>
</svg>
