<svg xmlns="http://www.w3.org/2000/svg" id="svg2" width="48" height="48" version="1">
 <path id="path4" fill="#ccc" d="m40 42v-36c0-1.108-0.892-2-2-2h-28c-1.108 0-2 0.892-2 2v36c0 1.108 0.892 2 2 2h28c1.108 0 2-0.892 2-2z"/>
 <path id="path6" fill="#fff" opacity=".2" d="m10 4c-1.108 0-2 0.892-2 2v1c0-1.108 0.892-2 2-2h28c1.108 0 2 0.892 2 2v-1c0-1.108-0.892-2-2-2z"/>
 <path id="path8" opacity=".2" d="m8 42v1c0 1.108 0.892 2 2 2h28c1.108 0 2-0.892 2-2v-1c0 1.108-0.892 2-2 2h-28c-1.108 0-2-0.892-2-2z"/>
 <path style="opacity:0.5" id="path24" d="m 15,31 0,-2 11,0 0,2 z m 0,-4 0,-2 17,0 0,2 z m 0,-4 0,-2 17,0 0,2 z m 0,-4 0,-2 17,0 0,2 z"/>
 <circle style="opacity:0.2;fill:#000000;fill-opacity:1;stroke-width:4" id="circle4166" cx="35" cy="38" r="10"/>
 <circle id="circle2" cx="35" cy="37" r="10" style="fill:#db3c30;fill-opacity:1;stroke-width:4"/>
 <path style="fill:#ffffff;stroke-width:2.59999728" id="path18-6" d="m 30.05934,33.45536 3.535543,3.535543 -3.535534,3.535534 1.414214,1.414214 3.535534,-3.535534 3.535533,3.535534 1.414214,-1.414214 -3.535534,-3.535534 3.535534,-3.535534 -1.414214,-1.414213 -3.535533,3.535534 -3.535544,-3.535543 z"/>
</svg>
