<svg xmlns="http://www.w3.org/2000/svg" id="svg12" width="48" height="48" version="1">
 <rect id="rect2" width="40" height="40" x="-44" y="-44" rx="20" ry="20" transform="matrix(0,-1,-1,0,0,0)" style="fill:#a6369e;fill-opacity:1"/>
 <path id="path4" fill="#fff" opacity=".2" d="m24 4c-11.08 0-20 8.92-20 20 0 0.168-0.004 0.333 0 0.5 0.2644-10.846 9.088-19.5 20-19.5s19.736 8.654 20 19.5c0.004-0.167 0-0.332 0-0.5 0-11.08-8.92-20-20-20z"/>
 <path id="path6" opacity=".2" d="m4.0117 24.5c-0.0041 0.167-0.0117 0.332-0.0117 0.5 0 11.08 8.92 20 20 20s20-8.92 20-20c0-0.168-0.008-0.333-0.012-0.5-0.264 10.846-9.076 19.5-19.988 19.5s-19.724-8.654-19.988-19.5z"/>
 <path id="path8" opacity=".2" d="m18.495 16a1.4613 1.4593 0 0 0 -1.495 1.46v15.082a1.4613 1.4593 0 0 0 2.1917 1.2635l6.5391-3.7695 6.5391-3.7714a1.4613 1.4593 0 0 0 0 -2.5269l-6.539-3.772-6.539-3.77a1.4613 1.4593 0 0 0 -0.697 -0.196z"/>
 <path id="path10" fill="#fff" d="m18.495 15a1.4613 1.4593 0 0 0 -1.495 1.46v15.082a1.4613 1.4593 0 0 0 2.1917 1.2635l6.5391-3.7695 6.5391-3.7714a1.4613 1.4593 0 0 0 0 -2.5269l-6.539-3.772-6.539-3.77a1.4613 1.4593 0 0 0 -0.697 -0.196z"/>
 <rect style="opacity:0.2;fill:#000000;fill-opacity:1;stroke-width:0.5" id="rect4150" width="20" height="20" x="-48" y="-48" rx="10" ry="10" transform="matrix(0,-1,-1,0,0,0)"/>
 <rect id="rect2-3" width="20" height="20" x="-47" y="-48" rx="10" ry="10" transform="matrix(0,-1,-1,0,0,0)" style="fill:#f58411;fill-opacity:1;stroke-width:0.5"/>
 <g style="fill:#ffffff;fill-opacity:1" id="g18" transform="matrix(-0.66666667,0,0,-0.66666667,48.666667,47.666667)">
  <path style="fill:#ffffff;fill-opacity:1" id="rect4" d="m 10,7 4.5,0 0,18 -4.5,0 z"/>
  <path style="fill:#ffffff;fill-opacity:1" id="rect6" d="m 17.5,7 4.5,0 0,18 -4.5,0 z"/>
 </g>
</svg>
