<?xml version="1.0" encoding="UTF-8" standalone="no"?>
<svg
   xmlns:dc="http://purl.org/dc/elements/1.1/"
   xmlns:cc="http://creativecommons.org/ns#"
   xmlns:rdf="http://www.w3.org/1999/02/22-rdf-syntax-ns#"
   xmlns:svg="http://www.w3.org/2000/svg"
   xmlns="http://www.w3.org/2000/svg"
   xmlns:sodipodi="http://sodipodi.sourceforge.net/DTD/sodipodi-0.dtd"
   xmlns:inkscape="http://www.inkscape.org/namespaces/inkscape"
   width="48"
   height="48"
   version="1"
   id="svg16"
   sodipodi:docname="refresh.svg"
   inkscape:version="0.92.2 5c3e80d, 2017-08-06">
  <metadata
     id="metadata22">
    <rdf:RDF>
      <cc:Work
         rdf:about="">
        <dc:format>image/svg+xml</dc:format>
        <dc:type
           rdf:resource="http://purl.org/dc/dcmitype/StillImage" />
        <dc:title></dc:title>
      </cc:Work>
    </rdf:RDF>
  </metadata>
  <defs
     id="defs20" />
  <sodipodi:namedview
     pagecolor="#ffffff"
     bordercolor="#666666"
     borderopacity="1"
     objecttolerance="10"
     gridtolerance="10"
     guidetolerance="10"
     inkscape:pageopacity="0"
     inkscape:pageshadow="2"
     inkscape:window-width="1366"
     inkscape:window-height="694"
     id="namedview18"
     showgrid="false"
     inkscape:zoom="6.9532167"
     inkscape:cx="14.845882"
     inkscape:cy="21.021425"
     inkscape:window-x="0"
     inkscape:window-y="48"
     inkscape:window-maximized="1"
     inkscape:current-layer="svg16" />
  <rect
     width="40"
     height="40"
     x="-44"
     y="-44"
     rx="20"
     ry="20"
     transform="matrix(0,-1,-1,0,0,0)"
     id="rect2"
     style="fill:#d951c4;fill-opacity:1"
     fill="#30a3db" />
  <path
     fill="#fff"
     opacity=".2"
     d="m24 4c-11.08 0-20 8.92-20 20 0 0.168 0.008 0.333 0.0117 0.5 0.2647-10.846 9.0763-19.5 19.988-19.5s19.724 8.6539 19.988 19.5c0.004-0.16686 0.0117-0.33213 0.0117-0.5 0-11.08-8.92-20-20-20z"
     id="path12" />
  <path
     opacity=".2"
     d="m4.0117 24.5c-0.0041 0.167-0.0117 0.332-0.0117 0.5 0 11.08 8.92 20 20 20s20-8.92 20-20c0-0.168-0.008-0.333-0.012-0.5-0.264 10.846-9.076 19.5-19.988 19.5s-19.724-8.654-19.988-19.5z"
     id="path14" />
  <path
     style="opacity:0.2;stroke-width:1.44971871"
     inkscape:connector-curvature="0"
     id="path852"
     d="M 21.148031,9.7778915 V 14.466863 C 15.216362,15.818726 11.006379,21.090048 11,27.174518 11,34.380504 16.841497,40.222 24.047469,40.222 30.686456,40.214 36.26106,35.222211 36.998676,28.624235 c 0,0 0.09628,-1.449718 -1.353442,-1.449718 -1.449719,0 -1.565842,1.449718 -1.565842,1.449718 -0.72051,4.988497 -4.991381,8.692529 -10.032054,8.698327 -5.604612,0 -10.148031,-4.543418 -10.148031,-10.148045 0.0045,-4.48398 2.951627,-8.433014 7.248594,-9.714566 v 3.915691 l 5.798875,-5.798876 z" />
  <path
     d="M 21.148031,8.7779455 V 13.466917 C 15.216362,14.81878 11.006379,20.090102 11,26.174572 c 0,7.205986 5.841497,13.047482 13.047469,13.047482 6.638987,-0.008 12.213591,-4.999789 12.951207,-11.597765 0,0 0.09628,-1.449718 -1.353442,-1.449718 -1.449719,0 -1.565842,1.449718 -1.565842,1.449718 -0.72051,4.988497 -4.991381,8.692529 -10.032054,8.698327 -5.604612,0 -10.148031,-4.543418 -10.148031,-10.148045 0.0045,-4.48398 2.951627,-8.433014 7.248594,-9.714566 v 3.915691 l 5.798875,-5.798876 z"
     id="path6"
     inkscape:connector-curvature="0"
     style="fill:#ffffff;stroke-width:1.44971871" />
</svg>
