<svg xmlns="http://www.w3.org/2000/svg" id="svg16" width="48" height="48" version="1">
 <rect id="rect2" width="40" height="40" x="-44" y="-44" rx="20" ry="20" transform="matrix(0,-1,-1,0,0,0)" style="fill:#ffcd2b;fill-opacity:1"/>
 <path id="path12" fill="#fff" opacity=".2" d="m24 4c-11.08 0-20 8.92-20 20 0 0.168 0.008 0.333 0.0117 0.5 0.2647-10.846 9.0763-19.5 19.988-19.5s19.724 8.6539 19.988 19.5c0.004-0.16686 0.0117-0.33213 0.0117-0.5 0-11.08-8.92-20-20-20z"/>
 <path id="path14" opacity=".2" d="m4.0117 24.5c-0.0041 0.167-0.0117 0.332-0.0117 0.5 0 11.08 8.92 20 20 20s20-8.92 20-20c0-0.168-0.008-0.333-0.012-0.5-0.264 10.846-9.076 19.5-19.988 19.5s-19.724-8.654-19.988-19.5z"/>
 <path style="opacity:0.2;fill:#000000;stroke-width:1.44971871" id="path4137" d="m 21.148031,7.5558915 0,4.6889715 C 15.216362,13.596726 11.006379,18.868048 11,24.952518 11,32.158504 16.841497,38 24.047469,38 30.686456,37.992 36.26106,33.000211 36.998676,26.402235 c 0,0 0.09628,-1.449718 -1.353442,-1.449718 -1.449719,0 -1.565842,1.449718 -1.565842,1.449718 -0.72051,4.988497 -4.991381,8.692529 -10.032054,8.698327 -5.604612,0 -10.148031,-4.543418 -10.148031,-10.148045 0.0045,-4.48398 2.951627,-8.433014 7.248594,-9.714566 l 0,3.915691 5.798875,-5.798876 z"/>
 <path id="path6" d="m 21.148031,6.5558915 0,4.6889715 C 15.216362,12.596726 11.006379,17.868048 11,23.952518 11,31.158504 16.841497,37 24.047469,37 30.686456,36.992 36.26106,32.000211 36.998676,25.402235 c 0,0 0.09628,-1.449718 -1.353442,-1.449718 -1.449719,0 -1.565842,1.449718 -1.565842,1.449718 -0.72051,4.988497 -4.991381,8.692529 -10.032054,8.698327 -5.604612,0 -10.148031,-4.543418 -10.148031,-10.148045 0.0045,-4.48398 2.951627,-8.433014 7.248594,-9.714566 l 0,3.915691 5.798875,-5.798876 z" style="fill:#3f3f3f;stroke-width:1.44971871;fill-opacity:1"/>
</svg>
