<svg xmlns="http://www.w3.org/2000/svg" id="svg16" width="48" height="48" version="1">
 <rect id="rect2" width="40" height="40" x="-44" y="-44" rx="20" ry="20" transform="matrix(0,-1,-1,0,0,0)" style="fill:#db3c30;fill-opacity:1"/>
 <path id="path12" fill="#fff" opacity=".2" d="m24 4c-11.08 0-20 8.92-20 20 0 0.168 0.008 0.333 0.0117 0.5 0.2647-10.846 9.0763-19.5 19.988-19.5s19.724 8.6539 19.988 19.5c0.004-0.16686 0.0117-0.33213 0.0117-0.5 0-11.08-8.92-20-20-20z"/>
 <path id="path14" opacity=".2" d="m4.0117 24.5c-0.0041 0.167-0.0117 0.332-0.0117 0.5 0 11.08 8.92 20 20 20s20-8.92 20-20c0-0.168-0.008-0.333-0.012-0.5-0.264 10.846-9.076 19.5-19.988 19.5s-19.724-8.654-19.988-19.5z"/>
 <path id="path4140" d="m 12.686292,17.929224 7.071067,7.071068 -7.071067,7.071068 4.24264,4.24264 L 24,29.242933 31.071068,36.314 l 4.24264,-4.24264 -7.071067,-7.071068 7.071067,-7.071068 -4.24264,-4.24264 L 24,20.757651 l -7.071068,-7.071067 -4.24264,4.24264 z" style="opacity:0.2;fill:#000000;stroke-width:1.29999995"/>
 <path style="fill:#ffffff;stroke-width:1.29999995" id="rect4" d="M 12.686292,16.928932 19.757359,24 l -7.071067,7.071068 4.24264,4.24264 L 24,28.242641 l 7.071068,7.071067 4.24264,-4.24264 L 28.242641,24 35.313708,16.928932 31.071068,12.686292 24,19.757359 l -7.071068,-7.071067 -4.24264,4.24264 z"/>
</svg>
