<?xml version="1.0" encoding="UTF-8" standalone="no"?>
<svg
   xmlns:dc="http://purl.org/dc/elements/1.1/"
   xmlns:cc="http://creativecommons.org/ns#"
   xmlns:rdf="http://www.w3.org/1999/02/22-rdf-syntax-ns#"
   xmlns:svg="http://www.w3.org/2000/svg"
   xmlns="http://www.w3.org/2000/svg"
   xmlns:sodipodi="http://sodipodi.sourceforge.net/DTD/sodipodi-0.dtd"
   xmlns:inkscape="http://www.inkscape.org/namespaces/inkscape"
   width="48"
   height="48"
   version="1"
   id="svg16"
   sodipodi:docname="remove.svg"
   inkscape:version="0.92.2 5c3e80d, 2017-08-06">
  <metadata
     id="metadata22">
    <rdf:RDF>
      <cc:Work
         rdf:about="">
        <dc:format>image/svg+xml</dc:format>
        <dc:type
           rdf:resource="http://purl.org/dc/dcmitype/StillImage" />
        <dc:title></dc:title>
      </cc:Work>
    </rdf:RDF>
  </metadata>
  <defs
     id="defs20" />
  <sodipodi:namedview
     pagecolor="#ffffff"
     bordercolor="#666666"
     borderopacity="1"
     objecttolerance="10"
     gridtolerance="10"
     guidetolerance="10"
     inkscape:pageopacity="0"
     inkscape:pageshadow="2"
     inkscape:window-width="1366"
     inkscape:window-height="694"
     id="namedview18"
     showgrid="false"
     inkscape:zoom="6.9532167"
     inkscape:cx="10.737502"
     inkscape:cy="18.99369"
     inkscape:window-x="0"
     inkscape:window-y="48"
     inkscape:window-maximized="1"
     inkscape:current-layer="svg16" />
  <rect
     fill="#30a3db"
     width="40"
     height="40"
     x="-44"
     y="-44"
     rx="20"
     ry="20"
     transform="matrix(0,-1,-1,0,0,0)"
     id="rect2"
     style="fill:#db3c30;fill-opacity:1" />
  <path
     fill="#fff"
     opacity=".2"
     d="m24 4c-11.08 0-20 8.92-20 20 0 0.168 0.008 0.333 0.0117 0.5 0.2647-10.846 9.0763-19.5 19.988-19.5s19.724 8.6539 19.988 19.5c0.004-0.16686 0.0117-0.33213 0.0117-0.5 0-11.08-8.92-20-20-20z"
     id="path12" />
  <path
     opacity=".2"
     d="m4.0117 24.5c-0.0041 0.167-0.0117 0.332-0.0117 0.5 0 11.08 8.92 20 20 20s20-8.92 20-20c0-0.168-0.008-0.333-0.012-0.5-0.264 10.846-9.076 19.5-19.988 19.5s-19.724-8.654-19.988-19.5z"
     id="path14" />
  <g
     style="opacity:0.2;fill-opacity:1"
     transform="translate(-45.521179,-964.79799)"
     id="g911">
    <g
       style="fill-opacity:1"
       transform="matrix(2.1666667,2.1666667,-2.1666667,2.1666667,2315.0546,-1290.4021)"
       id="g909">
      <rect
         style="fill-opacity:1"
         width="2"
         height="10"
         x="1043.4"
         y="-13"
         transform="rotate(90)"
         id="rect905" />
      <rect
         style="fill-opacity:1"
         width="2"
         height="10"
         x="-9"
         y="-1049.4"
         transform="scale(-1)"
         id="rect907" />
    </g>
  </g>
  <g
     id="g861"
     transform="translate(-45.521179,-965.79799)"
     style="fill:#ffffff;fill-opacity:1">
    <g
       id="g8"
       transform="matrix(2.1666667,2.1666667,-2.1666667,2.1666667,2315.0546,-1290.4021)"
       style="fill:#ffffff;fill-opacity:1">
      <rect
         id="rect4"
         transform="rotate(90)"
         y="-13"
         x="1043.4"
         height="10"
         width="2"
         style="fill:#ffffff;fill-opacity:1" />
      <rect
         id="rect6"
         transform="scale(-1)"
         y="-1049.4"
         x="-9"
         height="10"
         width="2"
         style="fill:#ffffff;fill-opacity:1" />
    </g>
  </g>
</svg>
