<?xml version="1.0" encoding="UTF-8" standalone="no"?>
<svg
   xmlns:dc="http://purl.org/dc/elements/1.1/"
   xmlns:cc="http://creativecommons.org/ns#"
   xmlns:rdf="http://www.w3.org/1999/02/22-rdf-syntax-ns#"
   xmlns:svg="http://www.w3.org/2000/svg"
   xmlns="http://www.w3.org/2000/svg"
   xmlns:sodipodi="http://sodipodi.sourceforge.net/DTD/sodipodi-0.dtd"
   xmlns:inkscape="http://www.inkscape.org/namespaces/inkscape"
   width="48"
   height="48"
   version="1"
   id="svg12"
   sodipodi:docname="remove_queue.svg"
   inkscape:version="0.92.2 5c3e80d, 2017-08-06">
  <metadata
     id="metadata18">
    <rdf:RDF>
      <cc:Work
         rdf:about="">
        <dc:format>image/svg+xml</dc:format>
        <dc:type
           rdf:resource="http://purl.org/dc/dcmitype/StillImage" />
        <dc:title></dc:title>
      </cc:Work>
    </rdf:RDF>
  </metadata>
  <defs
     id="defs16" />
  <sodipodi:namedview
     pagecolor="#ffffff"
     bordercolor="#666666"
     borderopacity="1"
     objecttolerance="10"
     gridtolerance="10"
     guidetolerance="10"
     inkscape:pageopacity="0"
     inkscape:pageshadow="2"
     inkscape:window-width="1366"
     inkscape:window-height="694"
     id="namedview14"
     showgrid="false"
     inkscape:zoom="6.9532166"
     inkscape:cx="24.352282"
     inkscape:cy="14.615034"
     inkscape:window-x="0"
     inkscape:window-y="48"
     inkscape:window-maximized="1"
     inkscape:current-layer="svg12" />
  <rect
     fill="#23c197"
     width="40"
     height="40"
     x="-44"
     y="-44"
     rx="20"
     ry="20"
     transform="matrix(0,-1,-1,0,0,0)"
     id="rect2"
     style="fill:#a6369e;fill-opacity:1" />
  <path
     fill="#fff"
     opacity=".2"
     d="m24 4c-11.08 0-20 8.92-20 20 0 0.168-0.004 0.333 0 0.5 0.2644-10.846 9.088-19.5 20-19.5s19.736 8.654 20 19.5c0.004-0.167 0-0.332 0-0.5 0-11.08-8.92-20-20-20z"
     id="path4" />
  <path
     opacity=".2"
     d="m4.0117 24.5c-0.0041 0.167-0.0117 0.332-0.0117 0.5 0 11.08 8.92 20 20 20s20-8.92 20-20c0-0.168-0.008-0.333-0.012-0.5-0.264 10.846-9.076 19.5-19.988 19.5s-19.724-8.654-19.988-19.5z"
     id="path6" />
  <path
     opacity=".2"
     d="m18.495 16a1.4613 1.4593 0 0 0 -1.495 1.46v15.082a1.4613 1.4593 0 0 0 2.1917 1.2635l6.5391-3.7695 6.5391-3.7714a1.4613 1.4593 0 0 0 0 -2.5269l-6.539-3.772-6.539-3.77a1.4613 1.4593 0 0 0 -0.697 -0.196z"
     id="path8" />
  <path
     fill="#fff"
     d="m18.495 15a1.4613 1.4593 0 0 0 -1.495 1.46v15.082a1.4613 1.4593 0 0 0 2.1917 1.2635l6.5391-3.7695 6.5391-3.7714a1.4613 1.4593 0 0 0 0 -2.5269l-6.539-3.772-6.539-3.77a1.4613 1.4593 0 0 0 -0.697 -0.196z"
     id="path10" />
  <g
     id="g92"
     transform="matrix(0.17857143,0,0,0.17857143,31.964767,32.538472)">
    <circle
       style="fill:#db3c30;fill-opacity:1;stroke-width:4"
       id="circle2"
       r="56"
       cy="26.584538"
       cx="33.797306" />
    <path
       style="opacity:0.2;fill:#ffffff;stroke-width:4"
       inkscape:connector-curvature="0"
       id="path8-6"
       d="m 33.797309,-29.415505 a 56,56 0 0 0 -56,56 56,56 0 0 0 0.086,2.344 56,56 0 0 1 55.912,-54.344 56,56 0 0 1 55.915999,53.656 56,56 0 0 0 0.084,-1.656 56,56 0 0 0 -55.999999,-56 z" />
    <path
       style="opacity:0.2;stroke-width:4"
       inkscape:connector-curvature="0"
       id="path10-7"
       d="m 89.713308,28.240495 a 56,56 0 0 1 -55.915999,54.34406 56,56 0 0 1 -55.912,-53.65606 56,56 0 0 0 -0.088,1.656 56,56 0 0 0 56,56.00006 56,56 0 0 0 55.999999,-56.00006 56,56 0 0 0 -0.084,-2.344 z" />
    <g
       transform="translate(-30.202622,-953.77763)"
       id="g861">
      <g
         id="g847"
         transform="matrix(5.65688,5.65688,-5.65688,5.65688,5926.7905,-4968.9385)"
         style="opacity:0.2;fill-opacity:1">
        <rect
           id="rect843"
           transform="rotate(90)"
           y="-13"
           x="1043.4"
           height="10"
           width="2"
           style="fill-opacity:1" />
        <rect
           id="rect845"
           transform="scale(-1)"
           y="-1049.4"
           x="-9"
           height="10"
           width="2"
           style="fill-opacity:1" />
      </g>
      <g
         style="fill:#ffffff"
         transform="matrix(5.65688,5.65688,-5.65688,5.65688,5926.7905,-4972.9385)"
         id="g8">
        <rect
           width="2"
           height="10"
           x="1043.4"
           y="-13"
           transform="rotate(90)"
           id="rect4" />
        <rect
           width="2"
           height="10"
           x="-9"
           y="-1049.4"
           transform="scale(-1)"
           id="rect6" />
      </g>
    </g>
  </g>
</svg>
