<svg xmlns="http://www.w3.org/2000/svg" id="svg22" width="48" height="48" version="1">
 <rect id="rect2" width="40" height="40" x="-44" y="-44" rx="2" ry="2" transform="matrix(0,-1,-1,0,0,0)" style="fill:#009587;fill-opacity:1"/>
 <path id="path4166" d="m 14,11 c -2.216,0 -4,1.784 -4,4 l 0,6 4,0 0,-3.142578 C 14,16.274565 15.274565,15 16.857422,15 L 20,15 l 0,-4 -6,0 z m 14,0 0,4 3.142578,0 C 32.725435,15 34,16.274565 34,17.857422 L 34,21 l 4,0 0,-6 c 0,-2.216 -1.784,-4 -4,-4 l -6,0 z m -18,18 0,6 c 0,2.216 1.784,4 4,4 l 6,0 0,-4 -3.142578,0 C 15.274565,35 14,33.725435 14,32.142578 L 14,29 10,29 Z m 24,0 0,3.142578 C 34,33.725435 32.725435,35 31.142578,35 L 28,35 l 0,4 6,0 c 2.216,0 4,-1.784 4,-4 l 0,-6 -4,0 z" style="opacity:0.2;fill:#000000;fill-opacity:1;stroke:none;stroke-width:4;stroke-linecap:round;stroke-linejoin:round;stroke-miterlimit:4;stroke-dasharray:none;stroke-opacity:1"/>
 <path id="path4" fill="#fff" opacity=".2" d="m6 4c-1.108 0-2 0.892-2 2v1c0-1.108 0.892-2 2-2h36c1.108 0 2 0.892 2 2v-1c0-1.108-0.892-2-2-2h-36z"/>
 <path id="path6" opacity=".2" d="m6 45c-1.108 0-2-0.892-2-2v-1c0 1.108 0.892 2 2 2h36c1.108 0 2-0.892 2-2v1c0 1.108-0.892 2-2 2h-36z"/>
 <path style="opacity:1;fill:#ffffff;fill-opacity:1;stroke:none;stroke-width:4;stroke-linecap:round;stroke-linejoin:round;stroke-miterlimit:4;stroke-dasharray:none;stroke-opacity:1" id="rect4142" d="M 14 10 C 11.784 10 10 11.784 10 14 L 10 20 L 14 20 L 14 16.857422 C 14 15.274565 15.274565 14 16.857422 14 L 20 14 L 20 10 L 14 10 z M 28 10 L 28 14 L 31.142578 14 C 32.725435 14 34 15.274565 34 16.857422 L 34 20 L 38 20 L 38 14 C 38 11.784 36.216 10 34 10 L 28 10 z M 10 28 L 10 34 C 10 36.216 11.784 38 14 38 L 20 38 L 20 34 L 16.857422 34 C 15.274565 34 14 32.725435 14 31.142578 L 14 28 L 10 28 z M 34 28 L 34 31.142578 C 34 32.725435 32.725435 34 31.142578 34 L 28 34 L 28 38 L 34 38 C 36.216 38 38 36.216 38 34 L 38 28 L 34 28 z"/>
 <path id="path4168" d="m 18,19 c -0.554,0 -1,0.446 -1,1 0,0.554 0.446,1 1,1 l 12,0 c 0.554,0 1,-0.446 1,-1 0,-0.554 -0.446,-1 -1,-1 l -12,0 z m 0,5 c -0.554,0 -1,0.446 -1,1 0,0.554 0.446,1 1,1 l 12,0 c 0.554,0 1,-0.446 1,-1 0,-0.554 -0.446,-1 -1,-1 l -12,0 z m 0,5 c -0.554,0 -1,0.446 -1,1 0,0.554 0.446,1 1,1 l 12,0 c 0.554,0 1,-0.446 1,-1 0,-0.554 -0.446,-1 -1,-1 l -12,0 z" style="opacity:0.2;fill:#000000;fill-opacity:1;stroke:none;stroke-width:4;stroke-linecap:round;stroke-linejoin:round;stroke-miterlimit:4;stroke-dasharray:none;stroke-opacity:1"/>
 <path style="opacity:1;fill:#93d2cc;fill-opacity:1;stroke:none;stroke-width:4;stroke-linecap:round;stroke-linejoin:round;stroke-miterlimit:4;stroke-dasharray:none;stroke-opacity:1" id="rect4157" d="M 18 18 C 17.446 18 17 18.446 17 19 C 17 19.554 17.446 20 18 20 L 30 20 C 30.554 20 31 19.554 31 19 C 31 18.446 30.554 18 30 18 L 18 18 z M 18 23 C 17.446 23 17 23.446 17 24 C 17 24.554 17.446 25 18 25 L 30 25 C 30.554 25 31 24.554 31 24 C 31 23.446 30.554 23 30 23 L 18 23 z M 18 28 C 17.446 28 17 28.446 17 29 C 17 29.554 17.446 30 18 30 L 30 30 C 30.554 30 31 29.554 31 29 C 31 28.446 30.554 28 30 28 L 18 28 z"/>
</svg>
