<svg xmlns="http://www.w3.org/2000/svg" id="svg22" width="32" height="32" version="1">
 <rect style="opacity:0.2;fill:#000000;fill-opacity:1" id="rect4155" width="28" height="28" x="-31" y="-30" rx="1.4" ry="1.4" transform="matrix(0,-1,-1,0,0,0)"/>
 <rect id="rect2" width="28" height="28" x="-30" y="-30" rx="1.4" ry="1.4" transform="matrix(0,-1,-1,0,0,0)" style="fill:#009587;fill-opacity:1"/>
 <path style="opacity:0.2;fill:#000000;fill-opacity:1;stroke:none;stroke-width:4;stroke-linecap:round;stroke-linejoin:round;stroke-miterlimit:4;stroke-dasharray:none;stroke-opacity:1" id="path4191" d="M 9.5722656,8 C 8.1476942,8 7,9.1476942 7,10.572266 L 7,14 l 3,0 0,-1.599609 C 10,11.624791 10.624791,11 11.400391,11 L 13,11 13,8 9.5722656,8 Z M 19,8 l 0,3 1.599609,0 C 21.375209,11 22,11.624791 22,12.400391 L 22,14 l 3,0 0,-3.427734 C 25,9.1476942 23.852306,8 22.427734,8 L 19,8 Z M 7,20 7,23.427734 C 7,24.852306 8.1476942,26 9.5722656,26 L 13,26 13,23 11.400391,23 C 10.624791,23 10,22.375209 10,21.599609 L 10,20 7,20 Z m 15,0 0,1.599609 C 22,22.375209 21.375209,23 20.599609,23 L 19,23 l 0,3 3.427734,0 C 23.852306,26 25,24.852306 25,23.427734 L 25,20 22,20 Z"/>
 <path id="rect4142" d="M 9.5722656,7 C 8.1476942,7 7,8.1476942 7,9.5722656 L 7,13 l 3,0 0,-1.599609 C 10,10.624791 10.624791,10 11.400391,10 L 13,10 13,7 9.5722656,7 Z M 19,7 l 0,3 1.599609,0 C 21.375209,10 22,10.624791 22,11.400391 L 22,13 25,13 25,9.5722656 C 25,8.1476942 23.852306,7 22.427734,7 L 19,7 Z M 7,19 7,22.427734 C 7,23.852306 8.1476942,25 9.5722656,25 L 13,25 13,22 11.400391,22 C 10.624791,22 10,21.375209 10,20.599609 L 10,19 7,19 Z m 15,0 0,1.599609 C 22,21.375209 21.375209,22 20.599609,22 L 19,22 l 0,3 3.427734,0 C 23.852306,25 25,23.852306 25,22.427734 L 25,19 22,19 Z" style="opacity:1;fill:#ffffff;fill-opacity:1;stroke:none;stroke-width:4;stroke-linecap:round;stroke-linejoin:round;stroke-miterlimit:4;stroke-dasharray:none;stroke-opacity:1"/>
 <path style="fill:#ffffff;fill-opacity:1;opacity:0.2" id="rect4150" d="M 3.4003906 2 C 2.6247906 2 2 2.6247906 2 3.4003906 L 2 4.4003906 C 2 3.6247906 2.6247906 3 3.4003906 3 L 28.599609 3 C 29.375209 3 30 3.6247906 30 4.4003906 L 30 3.4003906 C 30 2.6247906 29.375209 2 28.599609 2 L 3.4003906 2 z"/>
 <path id="path4193" d="m 13,12 c -0.554,0 -1,0.446 -1,1 0,0.554 0.446,1 1,1 l 6,0 c 0.554,0 1,-0.446 1,-1 0,-0.554 -0.446,-1 -1,-1 l -6,0 z m 0,4 c -0.554,0 -1,0.446 -1,1 0,0.554 0.446,1 1,1 l 6,0 c 0.554,0 1,-0.446 1,-1 0,-0.554 -0.446,-1 -1,-1 l -6,0 z m 0,4 c -0.554,0 -1,0.446 -1,1 0,0.554 0.446,1 1,1 l 6,0 c 0.554,0 1,-0.446 1,-1 0,-0.554 -0.446,-1 -1,-1 l -6,0 z" style="opacity:0.2;fill:#000000;fill-opacity:1;stroke:none;stroke-width:4;stroke-linecap:round;stroke-linejoin:round;stroke-miterlimit:4;stroke-dasharray:none;stroke-opacity:1"/>
 <path style="opacity:1;fill:#93d2cc;fill-opacity:1;stroke:none;stroke-width:4;stroke-linecap:round;stroke-linejoin:round;stroke-miterlimit:4;stroke-dasharray:none;stroke-opacity:1" id="rect4184" d="M 13 11 C 12.446 11 12 11.446 12 12 C 12 12.554 12.446 13 13 13 L 19 13 C 19.554 13 20 12.554 20 12 C 20 11.446 19.554 11 19 11 L 13 11 z M 13 15 C 12.446 15 12 15.446 12 16 C 12 16.554 12.446 17 13 17 L 19 17 C 19.554 17 20 16.554 20 16 C 20 15.446 19.554 15 19 15 L 13 15 z M 13 19 C 12.446 19 12 19.446 12 20 C 12 20.554 12.446 21 13 21 L 19 21 C 19.554 21 20 20.554 20 20 C 20 19.446 19.554 19 19 19 L 13 19 z"/>
</svg>
