<svg xmlns="http://www.w3.org/2000/svg" id="svg16" width="32" height="32" version="1">
 <path id="path4185" d="M 11.331581,3.0000003 A 2.333558,2.3334149 0 0 0 9.6818486,3.6844609 L 2.6827863,10.683095 A 2.333558,2.3334149 0 0 0 2.0001058,12.3546 l 0.082943,9.332726 a 2.333558,2.3334149 0 0 0 0.673565,1.619556 l 6.9161193,6.999545 A 2.333558,2.3334149 0 0 0 11.332493,30.99909 L 20.666703,31 a 2.333558,2.3334149 0 0 0 1.649733,-0.68446 l 6.999063,-6.998656 A 2.333558,2.3334149 0 0 0 29.99909,21.66634 L 30,12.332704 A 2.333558,2.3334149 0 0 0 29.315498,10.683095 L 22.316413,3.6844609 a 2.333558,2.3334149 0 0 0 -1.452859,-0.6753466 2.333558,2.3334149 0 0 0 -0.197786,-0.0082 l -9.33421,-9.1e-4 z" style="color:#000000;font-style:normal;font-variant:normal;font-weight:normal;font-stretch:normal;font-size:medium;line-height:normal;font-family:sans-serif;text-indent:0;text-align:start;text-decoration:none;text-decoration-line:none;text-decoration-style:solid;text-decoration-color:#000000;letter-spacing:normal;word-spacing:normal;text-transform:none;direction:ltr;block-progression:tb;writing-mode:lr-tb;baseline-shift:baseline;text-anchor:start;white-space:normal;clip-rule:nonzero;display:inline;overflow:visible;visibility:visible;opacity:0.2;isolation:auto;mix-blend-mode:normal;color-interpolation:sRGB;color-interpolation-filters:linearRGB;solid-color:#000000;solid-opacity:1;fill:#000000;fill-opacity:1;fill-rule:nonzero;stroke:none;stroke-width:6.34611034;stroke-linecap:round;stroke-linejoin:round;stroke-miterlimit:4;stroke-dasharray:none;stroke-dashoffset:0;stroke-opacity:1;color-rendering:auto;image-rendering:auto;shape-rendering:auto;text-rendering:auto;enable-background:accumulate"/>
 <path style="color:#000000;font-style:normal;font-variant:normal;font-weight:normal;font-stretch:normal;font-size:medium;line-height:normal;font-family:sans-serif;text-indent:0;text-align:start;text-decoration:none;text-decoration-line:none;text-decoration-style:solid;text-decoration-color:#000000;letter-spacing:normal;word-spacing:normal;text-transform:none;direction:ltr;block-progression:tb;writing-mode:lr-tb;baseline-shift:baseline;text-anchor:start;white-space:normal;clip-rule:nonzero;display:inline;overflow:visible;visibility:visible;opacity:1;isolation:auto;mix-blend-mode:normal;color-interpolation:sRGB;color-interpolation-filters:linearRGB;solid-color:#000000;solid-opacity:1;fill:#db3c30;fill-opacity:1;fill-rule:nonzero;stroke:none;stroke-width:6.34611034;stroke-linecap:round;stroke-linejoin:round;stroke-miterlimit:4;stroke-dasharray:none;stroke-dashoffset:0;stroke-opacity:1;color-rendering:auto;image-rendering:auto;shape-rendering:auto;text-rendering:auto;enable-background:accumulate" id="path4250" d="M 11.331581,2.0000003 A 2.333558,2.3334149 0 0 0 9.6818486,2.6844609 L 2.6827863,9.6830949 A 2.333558,2.3334149 0 0 0 2.0001058,11.3546 l 0.082943,9.332726 a 2.333558,2.3334149 0 0 0 0.673565,1.619556 l 6.9161193,6.999545 A 2.333558,2.3334149 0 0 0 11.332493,29.99909 L 20.666703,30 a 2.333558,2.3334149 0 0 0 1.649733,-0.68446 l 6.999063,-6.998656 A 2.333558,2.3334149 0 0 0 29.99909,20.66634 L 30,11.332704 A 2.333558,2.3334149 0 0 0 29.315498,9.6830949 l -6.999085,-6.998634 a 2.333558,2.3334149 0 0 0 -1.452859,-0.6753466 2.333558,2.3334149 0 0 0 -0.197786,-0.0082 l -9.33421,-9.1e-4 z"/>
 <path id="path4187" d="M 11.605469,6 5,12.605469 5.0800781,21.394531 11.605469,27.998047 20.392578,28 26.998047,21.394531 27,12.607422 20.392578,6.0019531 11.605469,6 Z m 1.230469,3 6.316406,0.00195 L 24,13.845703 23.998047,20.15625 19.150391,25 12.845703,24.998047 8.0566406,20.15625 8,13.833984 12.835938,9 Z" style="color:#000000;font-style:normal;font-variant:normal;font-weight:normal;font-stretch:normal;font-size:medium;line-height:normal;font-family:sans-serif;text-indent:0;text-align:start;text-decoration:none;text-decoration-line:none;text-decoration-style:solid;text-decoration-color:#000000;letter-spacing:normal;word-spacing:normal;text-transform:none;direction:ltr;block-progression:tb;writing-mode:lr-tb;baseline-shift:baseline;text-anchor:start;white-space:normal;clip-rule:nonzero;display:inline;overflow:visible;visibility:visible;opacity:0.2;isolation:auto;mix-blend-mode:normal;color-interpolation:sRGB;color-interpolation-filters:linearRGB;solid-color:#000000;solid-opacity:1;fill:#000000;fill-opacity:1;fill-rule:nonzero;stroke:none;stroke-width:8;stroke-linecap:round;stroke-linejoin:round;stroke-miterlimit:4;stroke-dasharray:none;stroke-dashoffset:0;stroke-opacity:1;color-rendering:auto;image-rendering:auto;shape-rendering:auto;text-rendering:auto;enable-background:accumulate"/>
 <path style="color:#000000;font-style:normal;font-variant:normal;font-weight:normal;font-stretch:normal;font-size:medium;line-height:normal;font-family:sans-serif;text-indent:0;text-align:start;text-decoration:none;text-decoration-line:none;text-decoration-style:solid;text-decoration-color:#000000;letter-spacing:normal;word-spacing:normal;text-transform:none;direction:ltr;block-progression:tb;writing-mode:lr-tb;baseline-shift:baseline;text-anchor:start;white-space:normal;clip-rule:nonzero;display:inline;overflow:visible;visibility:visible;opacity:1;isolation:auto;mix-blend-mode:normal;color-interpolation:sRGB;color-interpolation-filters:linearRGB;solid-color:#000000;solid-opacity:1;fill:#ffffff;fill-opacity:1;fill-rule:nonzero;stroke:none;stroke-width:8;stroke-linecap:round;stroke-linejoin:round;stroke-miterlimit:4;stroke-dasharray:none;stroke-dashoffset:0;stroke-opacity:1;color-rendering:auto;image-rendering:auto;shape-rendering:auto;text-rendering:auto;enable-background:accumulate" id="path4182" d="M 11.605469 5 L 5 11.605469 L 5.0800781 20.394531 L 11.605469 26.998047 L 20.392578 27 L 26.998047 20.394531 L 27 11.607422 L 20.392578 5.0019531 L 11.605469 5 z M 12.835938 8 L 19.152344 8.0019531 L 24 12.845703 L 23.998047 19.15625 L 19.150391 24 L 12.845703 23.998047 L 8.0566406 19.15625 L 8 12.833984 L 12.835938 8 z"/>
 <g id="g4189" transform="matrix(0.72580295,0,0,0.72575866,-1.4192708,-0.4182078)" style="font-style:normal;font-weight:normal;font-size:40px;line-height:125%;font-family:sans-serif;letter-spacing:0px;word-spacing:0px;opacity:0.2;fill:#000000;fill-opacity:1;stroke:none;stroke-width:1px;stroke-linecap:butt;stroke-linejoin:miter;stroke-opacity:1">
  <path id="path4191" d="m 18.283447,25.195679 q 0,0.725097 -0.523681,1.142578 -0.52002,0.41748 -1.450196,0.41748 -0.856933,0 -1.516113,-0.322265 l 0,-1.054688 q 0.541992,0.241699 0.915527,0.340576 0.377198,0.09888 0.688477,0.09888 0.373535,0 0.571289,-0.142822 0.201416,-0.142822 0.201416,-0.424805 0,-0.15747 -0.08789,-0.27832 -0.08789,-0.124512 -0.260009,-0.238037 -0.168457,-0.113525 -0.692139,-0.362549 -0.490723,-0.230713 -0.736084,-0.443115 -0.245361,-0.212402 -0.391846,-0.494385 -0.146484,-0.281982 -0.146484,-0.65918 0,-0.710449 0.479736,-1.116943 0.483399,-0.406494 1.333008,-0.406494 0.41748,0 0.794678,0.09888 0.380859,0.09888 0.794677,0.27832 l -0.36621,0.882569 q -0.428467,-0.175782 -0.71045,-0.245362 -0.27832,-0.06958 -0.549316,-0.06958 -0.322266,0 -0.494385,0.150147 -0.172119,0.150146 -0.172119,0.391845 0,0.150147 0.06958,0.263672 0.06958,0.109863 0.219727,0.216065 0.153808,0.102539 0.721435,0.373535 0.750733,0.358887 1.029053,0.721435 0.27832,0.358887 0.27832,0.882569 z" style="font-style:normal;font-variant:normal;font-weight:bold;font-stretch:normal;font-size:7.5px;font-family:'Noto Sans';-inkscape-font-specification:'Noto Sans Bold';fill:#000000;fill-opacity:1"/>
  <path id="path4193" d="m 21.319336,26.682495 -1.135254,0 0,-4.40918 -1.453857,0 0,-0.944824 4.042968,0 0,0.944824 -1.453857,0 0,4.40918 z" style="font-style:normal;font-variant:normal;font-weight:bold;font-stretch:normal;font-size:7.5px;font-family:'Noto Sans';-inkscape-font-specification:'Noto Sans Bold';fill:#000000;fill-opacity:1"/>
  <path id="path4195" d="m 28.390869,23.998169 q 0,1.329346 -0.65918,2.043457 -0.659179,0.714111 -1.889648,0.714111 -1.230469,0 -1.889648,-0.714111 -0.65918,-0.714111 -0.65918,-2.050781 0,-1.33667 0.65918,-2.039795 0.662841,-0.706787 1.896972,-0.706787 1.234131,0 1.885987,0.710449 0.655517,0.710449 0.655517,2.043457 z m -3.907471,0 q 0,0.897217 0.340577,1.351318 0.340576,0.454102 1.018066,0.454102 1.358643,0 1.358643,-1.80542 0,-1.809082 -1.351319,-1.809082 -0.67749,0 -1.021728,0.457764 -0.344239,0.454101 -0.344239,1.351318 z" style="font-style:normal;font-variant:normal;font-weight:bold;font-stretch:normal;font-size:7.5px;font-family:'Noto Sans';-inkscape-font-specification:'Noto Sans Bold';fill:#000000;fill-opacity:1"/>
  <path id="path4197" d="m 30.643066,23.848022 0.373536,0 q 0.523681,0 0.783691,-0.205078 0.26001,-0.20874 0.26001,-0.604248 0,-0.39917 -0.219727,-0.589599 -0.216064,-0.19043 -0.681152,-0.19043 l -0.516358,0 0,1.589355 z m 2.563477,-0.849609 q 0,0.864258 -0.541992,1.322022 -0.53833,0.457763 -1.534424,0.457763 l -0.487061,0 0,1.904297 -1.135254,0 0,-5.354004 1.710206,0 q 0.974121,0 1.479492,0.421143 0.509033,0.41748 0.509033,1.248779 z" style="font-style:normal;font-variant:normal;font-weight:bold;font-stretch:normal;font-size:7.5px;font-family:'Noto Sans';-inkscape-font-specification:'Noto Sans Bold';fill:#000000;fill-opacity:1"/>
 </g>
 <g style="font-style:normal;font-weight:normal;font-size:40px;line-height:125%;font-family:sans-serif;letter-spacing:0px;word-spacing:0px;fill:#ffffff;fill-opacity:1;stroke:none;stroke-width:1px;stroke-linecap:butt;stroke-linejoin:miter;stroke-opacity:1" id="text4274" transform="matrix(0.72580295,0,0,0.72575866,-1.4192708,-1.4182078)">
  <path style="font-style:normal;font-variant:normal;font-weight:bold;font-stretch:normal;font-size:7.5px;font-family:'Noto Sans';-inkscape-font-specification:'Noto Sans Bold';fill:#ffffff;fill-opacity:1" id="path4292" d="m 18.283447,25.195679 q 0,0.725097 -0.523681,1.142578 -0.52002,0.41748 -1.450196,0.41748 -0.856933,0 -1.516113,-0.322265 l 0,-1.054688 q 0.541992,0.241699 0.915527,0.340576 0.377198,0.09888 0.688477,0.09888 0.373535,0 0.571289,-0.142822 0.201416,-0.142822 0.201416,-0.424805 0,-0.15747 -0.08789,-0.27832 -0.08789,-0.124512 -0.260009,-0.238037 -0.168457,-0.113525 -0.692139,-0.362549 -0.490723,-0.230713 -0.736084,-0.443115 -0.245361,-0.212402 -0.391846,-0.494385 -0.146484,-0.281982 -0.146484,-0.65918 0,-0.710449 0.479736,-1.116943 0.483399,-0.406494 1.333008,-0.406494 0.41748,0 0.794678,0.09888 0.380859,0.09888 0.794677,0.27832 l -0.36621,0.882569 q -0.428467,-0.175782 -0.71045,-0.245362 -0.27832,-0.06958 -0.549316,-0.06958 -0.322266,0 -0.494385,0.150147 -0.172119,0.150146 -0.172119,0.391845 0,0.150147 0.06958,0.263672 0.06958,0.109863 0.219727,0.216065 0.153808,0.102539 0.721435,0.373535 0.750733,0.358887 1.029053,0.721435 0.27832,0.358887 0.27832,0.882569 z"/>
  <path style="font-style:normal;font-variant:normal;font-weight:bold;font-stretch:normal;font-size:7.5px;font-family:'Noto Sans';-inkscape-font-specification:'Noto Sans Bold';fill:#ffffff;fill-opacity:1" id="path4294" d="m 21.319336,26.682495 -1.135254,0 0,-4.40918 -1.453857,0 0,-0.944824 4.042968,0 0,0.944824 -1.453857,0 0,4.40918 z"/>
  <path style="font-style:normal;font-variant:normal;font-weight:bold;font-stretch:normal;font-size:7.5px;font-family:'Noto Sans';-inkscape-font-specification:'Noto Sans Bold';fill:#ffffff;fill-opacity:1" id="path4296" d="m 28.390869,23.998169 q 0,1.329346 -0.65918,2.043457 -0.659179,0.714111 -1.889648,0.714111 -1.230469,0 -1.889648,-0.714111 -0.65918,-0.714111 -0.65918,-2.050781 0,-1.33667 0.65918,-2.039795 0.662841,-0.706787 1.896972,-0.706787 1.234131,0 1.885987,0.710449 0.655517,0.710449 0.655517,2.043457 z m -3.907471,0 q 0,0.897217 0.340577,1.351318 0.340576,0.454102 1.018066,0.454102 1.358643,0 1.358643,-1.80542 0,-1.809082 -1.351319,-1.809082 -0.67749,0 -1.021728,0.457764 -0.344239,0.454101 -0.344239,1.351318 z"/>
  <path style="font-style:normal;font-variant:normal;font-weight:bold;font-stretch:normal;font-size:7.5px;font-family:'Noto Sans';-inkscape-font-specification:'Noto Sans Bold';fill:#ffffff;fill-opacity:1" id="path4298" d="m 30.643066,23.848022 0.373536,0 q 0.523681,0 0.783691,-0.205078 0.26001,-0.20874 0.26001,-0.604248 0,-0.39917 -0.219727,-0.589599 -0.216064,-0.19043 -0.681152,-0.19043 l -0.516358,0 0,1.589355 z m 2.563477,-0.849609 q 0,0.864258 -0.541992,1.322022 -0.53833,0.457763 -1.534424,0.457763 l -0.487061,0 0,1.904297 -1.135254,0 0,-5.354004 1.710206,0 q 0.974121,0 1.479492,0.421143 0.509033,0.41748 0.509033,1.248779 z"/>
 </g>
 <path style="color:#000000;font-style:normal;font-variant:normal;font-weight:normal;font-stretch:normal;font-size:medium;line-height:normal;font-family:sans-serif;text-indent:0;text-align:start;text-decoration:none;text-decoration-line:none;text-decoration-style:solid;text-decoration-color:#000000;letter-spacing:normal;word-spacing:normal;text-transform:none;direction:ltr;block-progression:tb;writing-mode:lr-tb;baseline-shift:baseline;text-anchor:start;white-space:normal;clip-rule:nonzero;display:inline;overflow:visible;visibility:visible;opacity:0.2;isolation:auto;mix-blend-mode:normal;color-interpolation:sRGB;color-interpolation-filters:linearRGB;solid-color:#000000;solid-opacity:1;fill:#ffffff;fill-opacity:1;fill-rule:nonzero;stroke:none;stroke-width:6.34611034;stroke-linecap:round;stroke-linejoin:round;stroke-miterlimit:4;stroke-dasharray:none;stroke-dashoffset:0;stroke-opacity:1;color-rendering:auto;image-rendering:auto;shape-rendering:auto;text-rendering:auto;enable-background:accumulate" id="path4199" d="M 11.332031 2 A 2.333558 2.3334149 0 0 0 9.6816406 2.6835938 L 2.6835938 9.6835938 A 2.333558 2.3334149 0 0 0 2 11.355469 L 2.0078125 12.134766 A 2.333558 2.3334149 0 0 1 2.6835938 10.683594 L 9.6816406 3.6835938 A 2.333558 2.3334149 0 0 1 11.332031 3 L 20.666016 3 A 2.333558 2.3334149 0 0 1 20.863281 3.0097656 A 2.333558 2.3334149 0 0 1 22.316406 3.6835938 L 29.316406 10.683594 A 2.333558 2.3334149 0 0 1 30 12.332031 L 30 11.332031 A 2.333558 2.3334149 0 0 0 29.316406 9.6835938 L 22.316406 2.6835938 A 2.333558 2.3334149 0 0 0 20.863281 2.0097656 A 2.333558 2.3334149 0 0 0 20.666016 2 L 11.332031 2 z"/>
</svg>
