<svg xmlns="http://www.w3.org/2000/svg" id="svg16" width="48" height="48" version="1">
 <path id="path4278" d="m 17.330836,5.0000335 a 3.3336515,3.3334471 0 0 0 -2.356759,0.9778 L 4.9754246,15.975874 a 3.3336515,3.3334471 0 0 0 -0.975257,2.387863 l 0.11849,13.332454 a 3.3336515,3.3334471 0 0 0 0.962235,2.31365 l 9.8801624,9.999342 A 3.3336515,3.3334471 0 0 0 17.332138,44.9987 L 30.666713,45 a 3.3336515,3.3334471 0 0 0 2.35676,-0.977799 l 9.998653,-9.998071 a 3.3336515,3.3334471 0 0 0 0.976558,-2.357918 l 0.0013,-13.333756 a 3.3336515,3.3334471 0 0 0 -0.97786,-2.356582 L 33.02344,5.9778335 a 3.3336515,3.3334471 0 0 0 -2.075511,-0.96478 3.3336515,3.3334471 0 0 0 -0.282551,-0.01172 l -13.334575,-0.0013 z" style="color:#000000;font-style:normal;font-variant:normal;font-weight:normal;font-stretch:normal;font-size:medium;line-height:normal;font-family:sans-serif;text-indent:0;text-align:start;text-decoration:none;text-decoration-line:none;text-decoration-style:solid;text-decoration-color:#000000;letter-spacing:normal;word-spacing:normal;text-transform:none;direction:ltr;block-progression:tb;writing-mode:lr-tb;baseline-shift:baseline;text-anchor:start;white-space:normal;clip-rule:nonzero;display:inline;overflow:visible;visibility:visible;opacity:0.2;isolation:auto;mix-blend-mode:normal;color-interpolation:sRGB;color-interpolation-filters:linearRGB;solid-color:#000000;solid-opacity:1;fill:#000000;fill-opacity:1;fill-rule:nonzero;stroke:none;stroke-width:6.34611034;stroke-linecap:round;stroke-linejoin:round;stroke-miterlimit:4;stroke-dasharray:none;stroke-dashoffset:0;stroke-opacity:1;color-rendering:auto;image-rendering:auto;shape-rendering:auto;text-rendering:auto;enable-background:accumulate"/>
 <path style="color:#000000;font-style:normal;font-variant:normal;font-weight:normal;font-stretch:normal;font-size:medium;line-height:normal;font-family:sans-serif;text-indent:0;text-align:start;text-decoration:none;text-decoration-line:none;text-decoration-style:solid;text-decoration-color:#000000;letter-spacing:normal;word-spacing:normal;text-transform:none;direction:ltr;block-progression:tb;writing-mode:lr-tb;baseline-shift:baseline;text-anchor:start;white-space:normal;clip-rule:nonzero;display:inline;overflow:visible;visibility:visible;opacity:1;isolation:auto;mix-blend-mode:normal;color-interpolation:sRGB;color-interpolation-filters:linearRGB;solid-color:#000000;solid-opacity:1;fill:#db3c30;fill-opacity:1;fill-rule:nonzero;stroke:none;stroke-width:6.34611034;stroke-linecap:round;stroke-linejoin:round;stroke-miterlimit:4;stroke-dasharray:none;stroke-dashoffset:0;stroke-opacity:1;color-rendering:auto;image-rendering:auto;shape-rendering:auto;text-rendering:auto;enable-background:accumulate" id="path4250" d="m 17.330836,4.0000165 a 3.3336515,3.3334471 0 0 0 -2.356759,0.9778 L 4.9754246,14.975857 a 3.3336515,3.3334471 0 0 0 -0.975257,2.387863 l 0.11849,13.332454 a 3.3336515,3.3334471 0 0 0 0.962235,2.31365 l 9.8801624,9.999342 a 3.3336515,3.3334471 0 0 0 2.371083,0.989517 l 13.334575,0.0013 a 3.3336515,3.3334471 0 0 0 2.35676,-0.977799 l 9.998653,-9.998071 a 3.3336515,3.3334471 0 0 0 0.976558,-2.357918 l 0.0013,-13.333756 a 3.3336515,3.3334471 0 0 0 -0.97786,-2.356582 L 33.02344,4.9778165 a 3.3336515,3.3334471 0 0 0 -2.075511,-0.96478 3.3336515,3.3334471 0 0 0 -0.282551,-0.01172 l -13.334575,-0.0013 z"/>
 <path id="path4280" d="m 17.609375,9.000017 -9.6074219,9.607422 0.1152344,12.785156 9.4921875,9.605469 12.779297,0.002 9.609375,-9.609375 L 40,18.611345 30.390625,9.0019701 17.609375,9.000017 Z m 1.65625,4 9.46875,0.002 L 36,20.267595 l -0.002,9.466797 -7.265625,7.265625 -9.451172,-0.002 -7.179688,-7.263672 -0.08398,-9.484375 7.248047,-7.25 z" style="color:#000000;font-style:normal;font-variant:normal;font-weight:normal;font-stretch:normal;font-size:medium;line-height:normal;font-family:sans-serif;text-indent:0;text-align:start;text-decoration:none;text-decoration-line:none;text-decoration-style:solid;text-decoration-color:#000000;letter-spacing:normal;word-spacing:normal;text-transform:none;direction:ltr;block-progression:tb;writing-mode:lr-tb;baseline-shift:baseline;text-anchor:start;white-space:normal;clip-rule:nonzero;display:inline;overflow:visible;visibility:visible;opacity:0.2;isolation:auto;mix-blend-mode:normal;color-interpolation:sRGB;color-interpolation-filters:linearRGB;solid-color:#000000;solid-opacity:1;fill:#000000;fill-opacity:1;fill-rule:nonzero;stroke:none;stroke-width:8;stroke-linecap:round;stroke-linejoin:round;stroke-miterlimit:4;stroke-dasharray:none;stroke-dashoffset:0;stroke-opacity:1;color-rendering:auto;image-rendering:auto;shape-rendering:auto;text-rendering:auto;enable-background:accumulate"/>
 <path style="color:#000000;font-style:normal;font-variant:normal;font-weight:normal;font-stretch:normal;font-size:medium;line-height:normal;font-family:sans-serif;text-indent:0;text-align:start;text-decoration:none;text-decoration-line:none;text-decoration-style:solid;text-decoration-color:#000000;letter-spacing:normal;word-spacing:normal;text-transform:none;direction:ltr;block-progression:tb;writing-mode:lr-tb;baseline-shift:baseline;text-anchor:start;white-space:normal;clip-rule:nonzero;display:inline;overflow:visible;visibility:visible;opacity:1;isolation:auto;mix-blend-mode:normal;color-interpolation:sRGB;color-interpolation-filters:linearRGB;solid-color:#000000;solid-opacity:1;fill:#ffffff;fill-opacity:1;fill-rule:nonzero;stroke:none;stroke-width:8;stroke-linecap:round;stroke-linejoin:round;stroke-miterlimit:4;stroke-dasharray:none;stroke-dashoffset:0;stroke-opacity:1;color-rendering:auto;image-rendering:auto;shape-rendering:auto;text-rendering:auto;enable-background:accumulate" id="path4267" d="M 17.609375 8 L 8.0019531 17.607422 L 8.1171875 30.392578 L 17.609375 39.998047 L 30.388672 40 L 39.998047 30.390625 L 40 17.611328 L 30.390625 8.0019531 L 17.609375 8 z M 19.265625 12 L 28.734375 12.001953 L 36 19.267578 L 35.998047 28.734375 L 28.732422 36 L 19.28125 35.998047 L 12.101562 28.734375 L 12.017578 19.25 L 19.265625 12 z"/>
 <g id="g4300" transform="matrix(1.088638,0,0,1.088638,-2.127312,-1.127312)" style="font-style:normal;font-weight:normal;font-size:40px;line-height:125%;font-family:sans-serif;letter-spacing:0px;word-spacing:0px;opacity:0.2;fill:#000000;fill-opacity:1;stroke:none;stroke-width:1px;stroke-linecap:butt;stroke-linejoin:miter;stroke-opacity:1">
  <path id="path4302" d="m 18.283447,25.195679 q 0,0.725097 -0.523681,1.142578 -0.52002,0.41748 -1.450196,0.41748 -0.856933,0 -1.516113,-0.322265 l 0,-1.054688 q 0.541992,0.241699 0.915527,0.340576 0.377198,0.09888 0.688477,0.09888 0.373535,0 0.571289,-0.142822 0.201416,-0.142822 0.201416,-0.424805 0,-0.15747 -0.08789,-0.27832 -0.08789,-0.124512 -0.260009,-0.238037 -0.168457,-0.113525 -0.692139,-0.362549 -0.490723,-0.230713 -0.736084,-0.443115 -0.245361,-0.212402 -0.391846,-0.494385 -0.146484,-0.281982 -0.146484,-0.65918 0,-0.710449 0.479736,-1.116943 0.483399,-0.406494 1.333008,-0.406494 0.41748,0 0.794678,0.09888 0.380859,0.09888 0.794677,0.27832 l -0.36621,0.882569 q -0.428467,-0.175782 -0.71045,-0.245362 -0.27832,-0.06958 -0.549316,-0.06958 -0.322266,0 -0.494385,0.150147 -0.172119,0.150146 -0.172119,0.391845 0,0.150147 0.06958,0.263672 0.06958,0.109863 0.219727,0.216065 0.153808,0.102539 0.721435,0.373535 0.750733,0.358887 1.029053,0.721435 0.27832,0.358887 0.27832,0.882569 z" style="font-style:normal;font-variant:normal;font-weight:bold;font-stretch:normal;font-size:7.5px;font-family:'Noto Sans';-inkscape-font-specification:'Noto Sans Bold';fill:#000000;fill-opacity:1"/>
  <path id="path4304" d="m 21.319336,26.682495 -1.135254,0 0,-4.40918 -1.453857,0 0,-0.944824 4.042968,0 0,0.944824 -1.453857,0 0,4.40918 z" style="font-style:normal;font-variant:normal;font-weight:bold;font-stretch:normal;font-size:7.5px;font-family:'Noto Sans';-inkscape-font-specification:'Noto Sans Bold';fill:#000000;fill-opacity:1"/>
  <path id="path4306" d="m 28.390869,23.998169 q 0,1.329346 -0.65918,2.043457 -0.659179,0.714111 -1.889648,0.714111 -1.230469,0 -1.889648,-0.714111 -0.65918,-0.714111 -0.65918,-2.050781 0,-1.33667 0.65918,-2.039795 0.662841,-0.706787 1.896972,-0.706787 1.234131,0 1.885987,0.710449 0.655517,0.710449 0.655517,2.043457 z m -3.907471,0 q 0,0.897217 0.340577,1.351318 0.340576,0.454102 1.018066,0.454102 1.358643,0 1.358643,-1.80542 0,-1.809082 -1.351319,-1.809082 -0.67749,0 -1.021728,0.457764 -0.344239,0.454101 -0.344239,1.351318 z" style="font-style:normal;font-variant:normal;font-weight:bold;font-stretch:normal;font-size:7.5px;font-family:'Noto Sans';-inkscape-font-specification:'Noto Sans Bold';fill:#000000;fill-opacity:1"/>
  <path id="path4308" d="m 30.643066,23.848022 0.373536,0 q 0.523681,0 0.783691,-0.205078 0.26001,-0.20874 0.26001,-0.604248 0,-0.39917 -0.219727,-0.589599 -0.216064,-0.19043 -0.681152,-0.19043 l -0.516358,0 0,1.589355 z m 2.563477,-0.849609 q 0,0.864258 -0.541992,1.322022 -0.53833,0.457763 -1.534424,0.457763 l -0.487061,0 0,1.904297 -1.135254,0 0,-5.354004 1.710206,0 q 0.974121,0 1.479492,0.421143 0.509033,0.41748 0.509033,1.248779 z" style="font-style:normal;font-variant:normal;font-weight:bold;font-stretch:normal;font-size:7.5px;font-family:'Noto Sans';-inkscape-font-specification:'Noto Sans Bold';fill:#000000;fill-opacity:1"/>
 </g>
 <g style="font-style:normal;font-weight:normal;font-size:40px;line-height:125%;font-family:sans-serif;letter-spacing:0px;word-spacing:0px;fill:#ffffff;fill-opacity:1;stroke:none;stroke-width:1px;stroke-linecap:butt;stroke-linejoin:miter;stroke-opacity:1" id="text4274" transform="matrix(1.088638,0,0,1.088638,-2.127312,-2.127312)">
  <path style="font-style:normal;font-variant:normal;font-weight:bold;font-stretch:normal;font-size:7.5px;font-family:'Noto Sans';-inkscape-font-specification:'Noto Sans Bold';fill:#ffffff;fill-opacity:1" id="path4292" d="m 18.283447,25.195679 q 0,0.725097 -0.523681,1.142578 -0.52002,0.41748 -1.450196,0.41748 -0.856933,0 -1.516113,-0.322265 l 0,-1.054688 q 0.541992,0.241699 0.915527,0.340576 0.377198,0.09888 0.688477,0.09888 0.373535,0 0.571289,-0.142822 0.201416,-0.142822 0.201416,-0.424805 0,-0.15747 -0.08789,-0.27832 -0.08789,-0.124512 -0.260009,-0.238037 -0.168457,-0.113525 -0.692139,-0.362549 -0.490723,-0.230713 -0.736084,-0.443115 -0.245361,-0.212402 -0.391846,-0.494385 -0.146484,-0.281982 -0.146484,-0.65918 0,-0.710449 0.479736,-1.116943 0.483399,-0.406494 1.333008,-0.406494 0.41748,0 0.794678,0.09888 0.380859,0.09888 0.794677,0.27832 l -0.36621,0.882569 q -0.428467,-0.175782 -0.71045,-0.245362 -0.27832,-0.06958 -0.549316,-0.06958 -0.322266,0 -0.494385,0.150147 -0.172119,0.150146 -0.172119,0.391845 0,0.150147 0.06958,0.263672 0.06958,0.109863 0.219727,0.216065 0.153808,0.102539 0.721435,0.373535 0.750733,0.358887 1.029053,0.721435 0.27832,0.358887 0.27832,0.882569 z"/>
  <path style="font-style:normal;font-variant:normal;font-weight:bold;font-stretch:normal;font-size:7.5px;font-family:'Noto Sans';-inkscape-font-specification:'Noto Sans Bold';fill:#ffffff;fill-opacity:1" id="path4294" d="m 21.319336,26.682495 -1.135254,0 0,-4.40918 -1.453857,0 0,-0.944824 4.042968,0 0,0.944824 -1.453857,0 0,4.40918 z"/>
  <path style="font-style:normal;font-variant:normal;font-weight:bold;font-stretch:normal;font-size:7.5px;font-family:'Noto Sans';-inkscape-font-specification:'Noto Sans Bold';fill:#ffffff;fill-opacity:1" id="path4296" d="m 28.390869,23.998169 q 0,1.329346 -0.65918,2.043457 -0.659179,0.714111 -1.889648,0.714111 -1.230469,0 -1.889648,-0.714111 -0.65918,-0.714111 -0.65918,-2.050781 0,-1.33667 0.65918,-2.039795 0.662841,-0.706787 1.896972,-0.706787 1.234131,0 1.885987,0.710449 0.655517,0.710449 0.655517,2.043457 z m -3.907471,0 q 0,0.897217 0.340577,1.351318 0.340576,0.454102 1.018066,0.454102 1.358643,0 1.358643,-1.80542 0,-1.809082 -1.351319,-1.809082 -0.67749,0 -1.021728,0.457764 -0.344239,0.454101 -0.344239,1.351318 z"/>
  <path style="font-style:normal;font-variant:normal;font-weight:bold;font-stretch:normal;font-size:7.5px;font-family:'Noto Sans';-inkscape-font-specification:'Noto Sans Bold';fill:#ffffff;fill-opacity:1" id="path4298" d="m 30.643066,23.848022 0.373536,0 q 0.523681,0 0.783691,-0.205078 0.26001,-0.20874 0.26001,-0.604248 0,-0.39917 -0.219727,-0.589599 -0.216064,-0.19043 -0.681152,-0.19043 l -0.516358,0 0,1.589355 z m 2.563477,-0.849609 q 0,0.864258 -0.541992,1.322022 -0.53833,0.457763 -1.534424,0.457763 l -0.487061,0 0,1.904297 -1.135254,0 0,-5.354004 1.710206,0 q 0.974121,0 1.479492,0.421143 0.509033,0.41748 0.509033,1.248779 z"/>
 </g>
 <path style="color:#000000;font-style:normal;font-variant:normal;font-weight:normal;font-stretch:normal;font-size:medium;line-height:normal;font-family:sans-serif;text-indent:0;text-align:start;text-decoration:none;text-decoration-line:none;text-decoration-style:solid;text-decoration-color:#000000;letter-spacing:normal;word-spacing:normal;text-transform:none;direction:ltr;block-progression:tb;writing-mode:lr-tb;baseline-shift:baseline;text-anchor:start;white-space:normal;clip-rule:nonzero;display:inline;overflow:visible;visibility:visible;opacity:0.2;isolation:auto;mix-blend-mode:normal;color-interpolation:sRGB;color-interpolation-filters:linearRGB;solid-color:#000000;solid-opacity:1;fill:#ffffff;fill-opacity:1;fill-rule:nonzero;stroke:none;stroke-width:6.34611034;stroke-linecap:round;stroke-linejoin:round;stroke-miterlimit:4;stroke-dasharray:none;stroke-dashoffset:0;stroke-opacity:1;color-rendering:auto;image-rendering:auto;shape-rendering:auto;text-rendering:auto;enable-background:accumulate" id="path4286" d="M 17.330078 4 A 3.3336515 3.3334471 0 0 0 14.974609 4.9785156 L 4.9746094 14.976562 A 3.3336515 3.3334471 0 0 0 4 17.363281 L 4.0078125 18.169922 A 3.3336515 3.3334471 0 0 1 4.9746094 15.976562 L 14.974609 5.9785156 A 3.3336515 3.3334471 0 0 1 17.330078 5 L 30.666016 5.0019531 A 3.3336515 3.3334471 0 0 1 30.947266 5.0136719 A 3.3336515 3.3334471 0 0 1 33.023438 5.9785156 L 43.021484 15.976562 A 3.3336515 3.3334471 0 0 1 44 18.330078 L 44 17.332031 A 3.3336515 3.3334471 0 0 0 43.021484 14.976562 L 33.023438 4.9785156 A 3.3336515 3.3334471 0 0 0 30.947266 4.0136719 A 3.3336515 3.3334471 0 0 0 30.666016 4.0019531 L 17.330078 4 z"/>
</svg>
