<svg xmlns="http://www.w3.org/2000/svg" id="svg16" width="48" height="48" version="1">
 <rect id="rect2" width="40" height="40" x="-44" y="-44" rx="20" ry="20" transform="matrix(0,-1,-1,0,0,0)" style="fill:#4f4f4f;fill-opacity:1"/>
 <path id="path12" fill="#fff" opacity=".2" d="m24 4c-11.08 0-20 8.92-20 20 0 0.168 0.008 0.333 0.0117 0.5 0.2647-10.846 9.0763-19.5 19.988-19.5s19.724 8.6539 19.988 19.5c0.004-0.16686 0.0117-0.33213 0.0117-0.5 0-11.08-8.92-20-20-20z" style="opacity:0.1"/>
 <path id="path14" opacity=".2" d="m4.0117 24.5c-0.0041 0.167-0.0117 0.332-0.0117 0.5 0 11.08 8.92 20 20 20s20-8.92 20-20c0-0.168-0.008-0.333-0.012-0.5-0.264 10.846-9.076 19.5-19.988 19.5s-19.724-8.654-19.988-19.5z"/>
 <path style="fill:#000000;fill-opacity:1;stroke-width:1.85714281;opacity:0.2" id="path876" d="M 11,24 16.571429,24 24,32.437605 31.428571,24 37,24 24.246629,39 Z"/>
 <path style="opacity:0.2;fill:#000000;fill-opacity:1;stroke-width:1.85714281" id="path4153" d="M 11,24 16.571429,24 24,15.562395 31.428571,24 37,24 24.246629,9 Z"/>
 <path id="path4149" d="M 11,23 16.571429,23 24,14.562395 31.428571,23 37,23 24.246629,8 Z" style="fill:#ff9b2a;fill-opacity:1;stroke-width:1.85714281;opacity:1"/>
</svg>
