<svg xmlns="http://www.w3.org/2000/svg" id="svg16" width="32" height="32" version="1">
 <rect style="opacity:0.2;fill:#000000;fill-opacity:1" id="rect4163" width="28" height="28" x="-31" y="-30" rx="14" ry="14" transform="matrix(0,-1,-1,0,0,0)"/>
 <rect id="rect2" width="28" height="28" x="-30" y="-30" rx="14" ry="14" transform="matrix(0,-1,-1,0,0,0)" style="fill:#4f4f4f;fill-opacity:1"/>
 <path style="fill:#000000;fill-opacity:1;stroke-width:1.85714281;opacity:0.2" id="path876" d="M 7.6425781 17 L 16.169922 26 L 24.380859 17 L 20.501953 17 L 16 21.765625 L 11.498047 17 L 7.6425781 17 z"/>
 <path id="path4172" d="M 16.169922,7 7.6425781,16 11.498047,16 16,11.234375 20.501953,16 24.380859,16 16.169922,7 Z" style="opacity:0.2;fill:#000000;fill-opacity:1;stroke-width:1.85714281"/>
 <path style="opacity:1;fill:#ff9b2a;fill-opacity:1;stroke-width:1.85714281" id="path4149" d="M 16.169922 6 L 7.6425781 15 L 11.498047 15 L 16 10.234375 L 20.501953 15 L 24.380859 15 L 16.169922 6 z"/>
 <path style="fill:#ffffff;fill-opacity:1;opacity:0.1" id="rect4167" d="M 16 2 C 8.244 2 2 8.244 2 16 C 2 16.168842 2.0195214 16.33264 2.0253906 16.5 C 2.2891326 8.9794325 8.4128418 3 16 3 C 23.587158 3 29.710867 8.9794325 29.974609 16.5 C 29.980479 16.33264 30 16.168842 30 16 C 30 8.244 23.756 2 16 2 z"/>
</svg>
